%TF.GenerationSoftware,KiCad,Pcbnew,5.1.6-c6e7f7d~86~ubuntu18.04.1*%
%TF.CreationDate,2020-07-17T12:02:37-05:00*%
%TF.ProjectId,LightProyect,4c696768-7450-4726-9f79-6563742e6b69,rev?*%
%TF.SameCoordinates,Original*%
%TF.FileFunction,Copper,L2,Bot*%
%TF.FilePolarity,Positive*%
%FSLAX46Y46*%
G04 Gerber Fmt 4.6, Leading zero omitted, Abs format (unit mm)*
G04 Created by KiCad (PCBNEW 5.1.6-c6e7f7d~86~ubuntu18.04.1) date 2020-07-17 12:02:37*
%MOMM*%
%LPD*%
G01*
G04 APERTURE LIST*
%TA.AperFunction,SMDPad,CuDef*%
%ADD10C,1.500000*%
%TD*%
%TA.AperFunction,ComponentPad*%
%ADD11C,3.000000*%
%TD*%
%TA.AperFunction,ComponentPad*%
%ADD12R,3.000000X3.000000*%
%TD*%
%TA.AperFunction,ComponentPad*%
%ADD13R,2.000000X2.000000*%
%TD*%
%TA.AperFunction,ComponentPad*%
%ADD14C,2.000000*%
%TD*%
%TA.AperFunction,ComponentPad*%
%ADD15O,1.524000X2.268000*%
%TD*%
%TA.AperFunction,ViaPad*%
%ADD16C,1.600000*%
%TD*%
%TA.AperFunction,Conductor*%
%ADD17C,0.500000*%
%TD*%
%TA.AperFunction,Conductor*%
%ADD18C,1.000000*%
%TD*%
%TA.AperFunction,Conductor*%
%ADD19C,0.250000*%
%TD*%
G04 APERTURE END LIST*
D10*
%TO.P,M1,3*%
%TO.N,Net-(M2-Pad3)*%
X122264160Y-173587560D03*
%TO.P,M1,4*%
%TO.N,GND*%
X119584160Y-173587560D03*
%TO.P,M1,2*%
X119584160Y-151087560D03*
%TO.P,M1,1*%
%TO.N,Net-(M1-Pad3)*%
X122264160Y-151087560D03*
%TD*%
D11*
%TO.P,J3,3*%
%TO.N,Net-(J3-Pad3)*%
X122488960Y-135041640D03*
%TO.P,J3,2*%
%TO.N,Net-(J3-Pad2)*%
X122488960Y-140121640D03*
D12*
%TO.P,J3,1*%
%TO.N,GND*%
X122488960Y-145201640D03*
%TD*%
D13*
%TO.P,J2,1*%
%TO.N,VCC*%
X130637280Y-175854360D03*
D14*
%TO.P,J2,2*%
%TO.N,GND*%
X130637280Y-178550320D03*
%TO.P,J2,3*%
X130637280Y-181200000D03*
%TD*%
D15*
%TO.P,M4,1*%
%TO.N,Net-(M1-Pad3)*%
X113903760Y-128584960D03*
%TO.P,M4,2*%
%TO.N,GND*%
X116443760Y-128584960D03*
%TO.P,M4,3*%
%TO.N,Net-(M4-Pad3)*%
X118983760Y-128584960D03*
%TO.P,M4,4*%
%TO.N,Net-(M4-Pad4)*%
X121523760Y-128584960D03*
%TD*%
D11*
%TO.P,J1,2*%
%TO.N,VCC*%
X121213880Y-178917600D03*
D12*
%TO.P,J1,1*%
%TO.N,GND*%
X121213880Y-183997600D03*
%TD*%
D14*
%TO.P,M3,1*%
%TO.N,Net-(M2-Pad3)*%
X121297440Y-92826840D03*
%TO.P,M3,3*%
%TO.N,GND*%
X127297440Y-92826840D03*
%TO.P,M3,2*%
%TO.N,Net-(M3-Pad2)*%
X124297440Y-92826840D03*
%TD*%
D16*
%TO.N,Net-(D1-Pad2)*%
X127431800Y-33375600D03*
X132008880Y-42280840D03*
X122844560Y-59705240D03*
%TO.N,GND*%
X123256040Y-154934920D03*
X115122960Y-170840400D03*
%TO.N,Net-(J3-Pad2)*%
X131221480Y-102905560D03*
X126161800Y-50881280D03*
%TO.N,Net-(M1-Pad3)*%
X116286280Y-70444360D03*
X113868200Y-139781280D03*
%TO.N,Net-(M2-Pad3)*%
X117348000Y-33426400D03*
X126644400Y-158851600D03*
%TO.N,Net-(M4-Pad3)*%
X114030760Y-66202560D03*
X117820440Y-56382920D03*
%TO.N,Net-(M4-Pad4)*%
X118607840Y-66497200D03*
X120269000Y-58709560D03*
%TO.N,Net-(SW1-Pad1)*%
X118304280Y-78174880D03*
X125887480Y-55194200D03*
%TD*%
D17*
%TO.N,Net-(D1-Pad2)*%
X127482600Y-33426400D02*
X127431800Y-33375600D01*
D18*
X132008880Y-42280840D02*
X132008880Y-45100240D01*
X132008880Y-45100240D02*
X129291080Y-47818040D01*
X129291080Y-47818040D02*
X125491240Y-47818040D01*
X125491240Y-47818040D02*
X122844560Y-50464720D01*
X122844560Y-50464720D02*
X122844560Y-59705240D01*
%TO.N,GND*%
X123240800Y-154950160D02*
X123256040Y-154934920D01*
X117870120Y-173587560D02*
X115122960Y-170840400D01*
X119584160Y-173587560D02*
X117870120Y-173587560D01*
X119584160Y-151087560D02*
X119584160Y-153508400D01*
X121010680Y-154934920D02*
X123256040Y-154934920D01*
X119584160Y-153508400D02*
X121010680Y-154934920D01*
%TO.N,Net-(J3-Pad2)*%
X128605280Y-53324760D02*
X126161800Y-50881280D01*
X131221480Y-102905560D02*
X131221480Y-53985160D01*
X130561080Y-53324760D02*
X128605280Y-53324760D01*
X131221480Y-53985160D02*
X130561080Y-53324760D01*
%TO.N,Net-(M1-Pad3)*%
X116337080Y-114096800D02*
X116337080Y-70495160D01*
X123611640Y-121371360D02*
X116337080Y-114096800D01*
X116337080Y-70495160D02*
X116286280Y-70444360D01*
X123611640Y-121371360D02*
X123611640Y-130601720D01*
X123611640Y-130601720D02*
X122174000Y-132039360D01*
X122174000Y-132039360D02*
X118399560Y-132039360D01*
X118399560Y-132039360D02*
X116931440Y-133507480D01*
X116931440Y-133507480D02*
X116931440Y-141478000D01*
X116225320Y-142184120D02*
X113868200Y-142184120D01*
X116931440Y-141478000D02*
X116225320Y-142184120D01*
X113868200Y-142184120D02*
X113868200Y-139781280D01*
X113868200Y-144007840D02*
X113868200Y-142184120D01*
X115321080Y-148209000D02*
X113868200Y-146756120D01*
X121351040Y-148209000D02*
X115321080Y-148209000D01*
X113868200Y-146756120D02*
X113868200Y-144007840D01*
X122264160Y-151087560D02*
X122264160Y-149122120D01*
X122264160Y-149122120D02*
X121351040Y-148209000D01*
%TO.N,Net-(M2-Pad3)*%
X123250960Y-158851600D02*
X126644400Y-158851600D01*
X112176560Y-36977320D02*
X112176560Y-47025560D01*
X117348000Y-33426400D02*
X115727480Y-33426400D01*
X115727480Y-33426400D02*
X112176560Y-36977320D01*
X112176560Y-58105040D02*
X112115600Y-58166000D01*
X112176560Y-47025560D02*
X112176560Y-58105040D01*
X112176560Y-63083440D02*
X111847390Y-63412610D01*
X111847390Y-63412610D02*
X111847390Y-140544310D01*
X112176560Y-58105040D02*
X112176560Y-63083440D01*
X111847390Y-140544310D02*
X111839410Y-140552290D01*
X111839410Y-149761610D02*
X120929400Y-158851600D01*
X111839410Y-140552290D02*
X111839410Y-149761610D01*
X122372120Y-158851600D02*
X123250960Y-158851600D01*
X122264160Y-159739320D02*
X121376440Y-158851600D01*
X122264160Y-173587560D02*
X122264160Y-159739320D01*
X121376440Y-158851600D02*
X122372120Y-158851600D01*
D19*
%TO.N,Net-(M3-Pad2)*%
X124805440Y-93334840D02*
X124551440Y-93588840D01*
X124297440Y-92826840D02*
X124805440Y-93334840D01*
D18*
%TO.N,Net-(M4-Pad3)*%
X117820440Y-58831480D02*
X117820440Y-56382920D01*
X114030760Y-66202560D02*
X114030760Y-62621160D01*
X114030760Y-62621160D02*
X117820440Y-58831480D01*
%TO.N,Net-(M4-Pad4)*%
X118607840Y-60370720D02*
X120269000Y-58709560D01*
X118607840Y-66497200D02*
X118607840Y-60370720D01*
%TO.N,Net-(SW1-Pad1)*%
X125887480Y-65232280D02*
X125887480Y-55194200D01*
X118304280Y-78174880D02*
X118304280Y-72815480D01*
X118304280Y-72815480D02*
X125887480Y-65232280D01*
%TD*%
M02*
