%TF.GenerationSoftware,KiCad,Pcbnew,5.1.6-c6e7f7d~86~ubuntu18.04.1*%
%TF.CreationDate,2020-07-17T12:02:37-05:00*%
%TF.ProjectId,LightProyect,4c696768-7450-4726-9f79-6563742e6b69,rev?*%
%TF.SameCoordinates,Original*%
%TF.FileFunction,Legend,Top*%
%TF.FilePolarity,Positive*%
%FSLAX46Y46*%
G04 Gerber Fmt 4.6, Leading zero omitted, Abs format (unit mm)*
G04 Created by KiCad (PCBNEW 5.1.6-c6e7f7d~86~ubuntu18.04.1) date 2020-07-17 12:02:37*
%MOMM*%
%LPD*%
G01*
G04 APERTURE LIST*
%ADD10C,0.120000*%
%ADD11C,0.200000*%
%ADD12C,0.150000*%
G04 APERTURE END LIST*
D10*
%TO.C,SW1*%
X123690380Y-101577140D02*
X117490380Y-101577140D01*
X123704280Y-107788640D02*
X117504280Y-107788640D01*
X123690380Y-107788640D02*
X123690380Y-101588640D01*
X117504280Y-107788640D02*
X117504280Y-101588640D01*
D11*
%TO.C,M2*%
X132334000Y-164566600D02*
X114046000Y-164566600D01*
X132334000Y-150342600D02*
X114046000Y-150342600D01*
X132334000Y-164566600D02*
X132334000Y-150342600D01*
X114046000Y-164566600D02*
X114046000Y-150342600D01*
D10*
%TO.C,J3*%
X126298960Y-147741640D02*
X126298960Y-132501640D01*
X118678960Y-147741640D02*
X118678960Y-132501640D01*
X125028960Y-147741640D02*
X125028960Y-132501640D01*
X126298960Y-132501640D02*
X118678960Y-132501640D01*
X126298960Y-147741640D02*
X118678960Y-147741640D01*
%TO.C,J2*%
X125828800Y-171470360D02*
X133448800Y-171470360D01*
X125828800Y-186710360D02*
X133448800Y-186710360D01*
X127098800Y-171470360D02*
X127098800Y-186710360D01*
X133448800Y-171470360D02*
X133448800Y-186710360D01*
X125828800Y-171470360D02*
X125828800Y-186710360D01*
D12*
%TO.C,M4*%
X112633760Y-114614960D02*
X132953760Y-114614960D01*
X132953760Y-114614960D02*
X132953760Y-129854960D01*
X132953760Y-129854960D02*
X112633760Y-129854960D01*
X112633760Y-129854960D02*
X112633760Y-114614960D01*
X126603760Y-122234960D02*
X125333760Y-123504960D01*
X125333760Y-123504960D02*
X126603760Y-124774960D01*
X130413760Y-123504960D02*
X125333760Y-123504960D01*
X130413760Y-118424960D02*
X130413760Y-123504960D01*
X129143760Y-119694960D02*
X130413760Y-118424960D01*
X130413760Y-118424960D02*
X131683760Y-119694960D01*
D10*
%TO.C,J1*%
X125023880Y-186537600D02*
X125023880Y-176377600D01*
X117403880Y-186537600D02*
X125023880Y-186537600D01*
X117403880Y-176377600D02*
X117403880Y-186537600D01*
X125023880Y-176377600D02*
X117403880Y-176377600D01*
X123753880Y-176377600D02*
X123753880Y-186537600D01*
%TO.C,M3*%
X119797440Y-91326840D02*
X119797440Y-94350840D01*
X128797440Y-91326840D02*
X128797440Y-94350840D01*
X128797440Y-94350840D02*
X119797440Y-94350840D01*
X128797440Y-91326840D02*
X119797440Y-91326840D01*
%TO.C,U1*%
X113647600Y-45614200D02*
X113037600Y-45614200D01*
X113647600Y-45614200D02*
X113647600Y-37994200D01*
X113647600Y-62234200D02*
X113647600Y-61614200D01*
X115767600Y-62234200D02*
X113647600Y-62234200D01*
X129887600Y-62234200D02*
X127767600Y-62234200D01*
X129887600Y-61614200D02*
X129887600Y-62234200D01*
X129887600Y-37994200D02*
X129887600Y-45614200D01*
X113647600Y-37994200D02*
X129887600Y-37994200D01*
%TO.C,SW1*%
D12*
X116335441Y-105933073D02*
X116383060Y-105790216D01*
X116383060Y-105552120D01*
X116335441Y-105456882D01*
X116287822Y-105409263D01*
X116192584Y-105361644D01*
X116097346Y-105361644D01*
X116002108Y-105409263D01*
X115954489Y-105456882D01*
X115906870Y-105552120D01*
X115859251Y-105742597D01*
X115811632Y-105837835D01*
X115764013Y-105885454D01*
X115668775Y-105933073D01*
X115573537Y-105933073D01*
X115478299Y-105885454D01*
X115430680Y-105837835D01*
X115383060Y-105742597D01*
X115383060Y-105504501D01*
X115430680Y-105361644D01*
X115383060Y-105028311D02*
X116383060Y-104790216D01*
X115668775Y-104599740D01*
X116383060Y-104409263D01*
X115383060Y-104171168D01*
X116383060Y-103266406D02*
X116383060Y-103837835D01*
X116383060Y-103552120D02*
X115383060Y-103552120D01*
X115525918Y-103647359D01*
X115621156Y-103742597D01*
X115668775Y-103837835D01*
%TO.C,M2*%
X122380476Y-146984980D02*
X122380476Y-145984980D01*
X122713809Y-146699266D01*
X123047142Y-145984980D01*
X123047142Y-146984980D01*
X123475714Y-146080219D02*
X123523333Y-146032600D01*
X123618571Y-145984980D01*
X123856666Y-145984980D01*
X123951904Y-146032600D01*
X123999523Y-146080219D01*
X124047142Y-146175457D01*
X124047142Y-146270695D01*
X123999523Y-146413552D01*
X123428095Y-146984980D01*
X124047142Y-146984980D01*
%TO.C,J3*%
X117291340Y-140484973D02*
X118005626Y-140484973D01*
X118148483Y-140532592D01*
X118243721Y-140627830D01*
X118291340Y-140770687D01*
X118291340Y-140865925D01*
X117291340Y-140104020D02*
X117291340Y-139484973D01*
X117672293Y-139818306D01*
X117672293Y-139675449D01*
X117719912Y-139580211D01*
X117767531Y-139532592D01*
X117862769Y-139484973D01*
X118100864Y-139484973D01*
X118196102Y-139532592D01*
X118243721Y-139580211D01*
X118291340Y-139675449D01*
X118291340Y-139961163D01*
X118243721Y-140056401D01*
X118196102Y-140104020D01*
%TO.C,J2*%
X130208780Y-185286013D02*
X130923066Y-185286013D01*
X131065923Y-185333632D01*
X131161161Y-185428870D01*
X131208780Y-185571727D01*
X131208780Y-185666965D01*
X130304019Y-184857441D02*
X130256400Y-184809822D01*
X130208780Y-184714584D01*
X130208780Y-184476489D01*
X130256400Y-184381251D01*
X130304019Y-184333632D01*
X130399257Y-184286013D01*
X130494495Y-184286013D01*
X130637352Y-184333632D01*
X131208780Y-184905060D01*
X131208780Y-184286013D01*
%TO.C,D1*%
X127204504Y-35656780D02*
X127204504Y-34656780D01*
X127442600Y-34656780D01*
X127585457Y-34704400D01*
X127680695Y-34799638D01*
X127728314Y-34894876D01*
X127775933Y-35085352D01*
X127775933Y-35228209D01*
X127728314Y-35418685D01*
X127680695Y-35513923D01*
X127585457Y-35609161D01*
X127442600Y-35656780D01*
X127204504Y-35656780D01*
X128728314Y-35656780D02*
X128156885Y-35656780D01*
X128442600Y-35656780D02*
X128442600Y-34656780D01*
X128347361Y-34799638D01*
X128252123Y-34894876D01*
X128156885Y-34942495D01*
%TO.C,M4*%
X128334236Y-126497340D02*
X128334236Y-125497340D01*
X128667569Y-126211626D01*
X129000902Y-125497340D01*
X129000902Y-126497340D01*
X129905664Y-125830674D02*
X129905664Y-126497340D01*
X129667569Y-125449721D02*
X129429474Y-126164007D01*
X130048521Y-126164007D01*
X124039950Y-123504960D02*
X124516140Y-123504960D01*
X123516140Y-123838293D02*
X124039950Y-123504960D01*
X123516140Y-123171626D01*
X129866140Y-117488293D02*
X130866140Y-116821626D01*
X129866140Y-116821626D02*
X130866140Y-117488293D01*
%TO.C,J1*%
X115586260Y-181790933D02*
X116300546Y-181790933D01*
X116443403Y-181838552D01*
X116538641Y-181933790D01*
X116586260Y-182076647D01*
X116586260Y-182171885D01*
X116586260Y-180790933D02*
X116586260Y-181362361D01*
X116586260Y-181076647D02*
X115586260Y-181076647D01*
X115729118Y-181171885D01*
X115824356Y-181267123D01*
X115871975Y-181362361D01*
%TO.C,M3*%
X131607820Y-93636363D02*
X130607820Y-93636363D01*
X131322106Y-93303030D01*
X130607820Y-92969697D01*
X131607820Y-92969697D01*
X130607820Y-92588744D02*
X130607820Y-91969697D01*
X130988773Y-92303030D01*
X130988773Y-92160173D01*
X131036392Y-92064935D01*
X131084011Y-92017316D01*
X131179249Y-91969697D01*
X131417344Y-91969697D01*
X131512582Y-92017316D01*
X131560201Y-92064935D01*
X131607820Y-92160173D01*
X131607820Y-92445887D01*
X131560201Y-92541125D01*
X131512582Y-92588744D01*
%TO.C,U1*%
X110445695Y-44306580D02*
X110445695Y-45116104D01*
X110493314Y-45211342D01*
X110540933Y-45258961D01*
X110636171Y-45306580D01*
X110826647Y-45306580D01*
X110921885Y-45258961D01*
X110969504Y-45211342D01*
X111017123Y-45116104D01*
X111017123Y-44306580D01*
X112017123Y-45306580D02*
X111445695Y-45306580D01*
X111731409Y-45306580D02*
X111731409Y-44306580D01*
X111636171Y-44449438D01*
X111540933Y-44544676D01*
X111445695Y-44592295D01*
%TD*%
M02*
