%TF.GenerationSoftware,KiCad,Pcbnew,(5.1.6)-1*%
%TF.CreationDate,2020-06-22T15:57:52-05:00*%
%TF.ProjectId,LightProyect,4c696768-7450-4726-9f79-6563742e6b69,rev?*%
%TF.SameCoordinates,Original*%
%TF.FileFunction,Soldermask,Top*%
%TF.FilePolarity,Negative*%
%FSLAX46Y46*%
G04 Gerber Fmt 4.6, Leading zero omitted, Abs format (unit mm)*
G04 Created by KiCad (PCBNEW (5.1.6)-1) date 2020-06-22 15:57:52*
%MOMM*%
%LPD*%
G01*
G04 APERTURE LIST*
%ADD10R,2.100000X2.100000*%
%ADD11R,1.100000X2.300000*%
%ADD12R,3.100000X3.100000*%
%ADD13C,3.100000*%
%ADD14C,2.100000*%
%ADD15O,2.368000X1.624000*%
%ADD16R,1.500000X1.700000*%
%ADD17R,2.600000X1.100000*%
%ADD18R,1.100000X1.900000*%
G04 APERTURE END LIST*
D10*
%TO.C,M2*%
X102236000Y-159354000D03*
X118236000Y-159354000D03*
X118236000Y-171354000D03*
X102236000Y-171354000D03*
%TD*%
D11*
%TO.C,D1*%
X115276000Y-28702000D03*
X112776000Y-28702000D03*
X110246000Y-28702000D03*
%TD*%
D12*
%TO.C,J1*%
X114554000Y-190754000D03*
D13*
X109474000Y-190754000D03*
%TD*%
%TO.C,J2*%
X115316000Y-177546000D03*
X110236000Y-177546000D03*
D12*
X105156000Y-177546000D03*
%TD*%
%TO.C,J3*%
X113284000Y-149606000D03*
D13*
X113284000Y-144526000D03*
X113284000Y-139446000D03*
%TD*%
D14*
%TO.C,M1*%
X110156000Y-134034000D03*
X112836000Y-134034000D03*
X112836000Y-156034000D03*
X110156000Y-156034000D03*
%TD*%
%TO.C,M3*%
X111506000Y-93980000D03*
X108506000Y-93980000D03*
X114506000Y-93980000D03*
%TD*%
D15*
%TO.C,M4*%
X118110000Y-121158000D03*
X118110000Y-123698000D03*
X118110000Y-126238000D03*
X118110000Y-128778000D03*
%TD*%
D16*
%TO.C,SW1*%
X111228000Y-104692000D03*
X111228000Y-97492000D03*
X108228000Y-104692000D03*
X108228000Y-97492000D03*
%TD*%
D17*
%TO.C,U1*%
X104414000Y-44760000D03*
X104414000Y-46760000D03*
X104414000Y-48760000D03*
X104414000Y-50760000D03*
X104414000Y-52760000D03*
X104414000Y-54760000D03*
X104414000Y-56760000D03*
X104414000Y-58760000D03*
D18*
X107014000Y-60260000D03*
X109014000Y-60260000D03*
X111014000Y-60260000D03*
X113014000Y-60260000D03*
X115014000Y-60260000D03*
X117014000Y-60260000D03*
D17*
X119614000Y-58760000D03*
X119614000Y-56760000D03*
X119614000Y-54760000D03*
X119614000Y-52760000D03*
X119614000Y-50760000D03*
X119614000Y-48760000D03*
X119614000Y-46760000D03*
X119614000Y-44760000D03*
%TD*%
M02*
