%TF.GenerationSoftware,KiCad,Pcbnew,5.1.6-c6e7f7d~86~ubuntu18.04.1*%
%TF.CreationDate,2020-07-16T23:52:59-05:00*%
%TF.ProjectId,LightProyect,4c696768-7450-4726-9f79-6563742e6b69,rev?*%
%TF.SameCoordinates,Original*%
%TF.FileFunction,Soldermask,Top*%
%TF.FilePolarity,Negative*%
%FSLAX46Y46*%
G04 Gerber Fmt 4.6, Leading zero omitted, Abs format (unit mm)*
G04 Created by KiCad (PCBNEW 5.1.6-c6e7f7d~86~ubuntu18.04.1) date 2020-07-16 23:52:59*
%MOMM*%
%LPD*%
G01*
G04 APERTURE LIST*
%ADD10C,1.600000*%
%ADD11R,1.100000X2.600000*%
%ADD12R,2.100000X2.100000*%
%ADD13C,3.100000*%
%ADD14R,3.100000X3.100000*%
%ADD15C,2.100000*%
%ADD16R,1.100000X2.300000*%
%ADD17O,1.624000X2.368000*%
%ADD18R,2.600000X1.100000*%
%ADD19R,1.100000X1.900000*%
G04 APERTURE END LIST*
D10*
%TO.C,M1*%
X122264160Y-173587560D03*
X119584160Y-173587560D03*
X119584160Y-151087560D03*
X122264160Y-151087560D03*
%TD*%
D11*
%TO.C,SW1*%
X123029980Y-110657640D03*
X122991880Y-98732340D03*
X118242080Y-110670340D03*
X118304280Y-98688640D03*
%TD*%
D12*
%TO.C,M2*%
X115190000Y-163454600D03*
X131190000Y-163454600D03*
X131190000Y-151454600D03*
X115190000Y-151454600D03*
%TD*%
D13*
%TO.C,J3*%
X122488960Y-135041640D03*
X122488960Y-140121640D03*
D14*
X122488960Y-145201640D03*
%TD*%
D12*
%TO.C,J2*%
X130637280Y-175854360D03*
D15*
X130637280Y-178550320D03*
X130637280Y-181550320D03*
%TD*%
D16*
%TO.C,D1*%
X122412600Y-29108400D03*
X124942600Y-29108400D03*
X127442600Y-29108400D03*
%TD*%
D17*
%TO.C,M4*%
X113903760Y-128584960D03*
X116443760Y-128584960D03*
X118983760Y-128584960D03*
X121523760Y-128584960D03*
%TD*%
D13*
%TO.C,J1*%
X121213880Y-178917600D03*
D14*
X121213880Y-183997600D03*
%TD*%
D15*
%TO.C,M3*%
X127587000Y-93878400D03*
X121587000Y-93878400D03*
X124587000Y-93878400D03*
%TD*%
D18*
%TO.C,U1*%
X129367600Y-46614200D03*
X129367600Y-48614200D03*
X129367600Y-50614200D03*
X129367600Y-52614200D03*
X129367600Y-54614200D03*
X129367600Y-56614200D03*
X129367600Y-58614200D03*
X129367600Y-60614200D03*
D19*
X126767600Y-62114200D03*
X124767600Y-62114200D03*
X122767600Y-62114200D03*
X120767600Y-62114200D03*
X118767600Y-62114200D03*
X116767600Y-62114200D03*
D18*
X114167600Y-60614200D03*
X114167600Y-58614200D03*
X114167600Y-56614200D03*
X114167600Y-54614200D03*
X114167600Y-52614200D03*
X114167600Y-50614200D03*
X114167600Y-48614200D03*
X114167600Y-46614200D03*
%TD*%
M02*
