M48
; DRILL file {KiCad 5.1.6-c6e7f7d~86~ubuntu18.04.1} date Fri Jul 17 12:02:41 2020
; FORMAT={-:-/ absolute / inch / decimal}
; #@! TF.CreationDate,2020-07-17T12:02:41-05:00
; #@! TF.GenerationSoftware,Kicad,Pcbnew,5.1.6-c6e7f7d~86~ubuntu18.04.1
; #@! TF.FileFunction,Plated,1,2,PTH
FMAT,2
INCH
T1C0.0300
T2C0.0394
T3C0.0598
%
G90
G05
T1
X4.4844Y-5.0624
X4.5844Y-5.0624
X4.6844Y-5.0624
X4.7844Y-5.0624
T2
X4.483Y-5.5032
X4.4894Y-2.6064
X4.5324Y-6.726
X4.5782Y-2.7734
X4.62Y-1.316
X4.6386Y-2.2198
X4.6576Y-3.0778
X4.6696Y-2.618
X4.735Y-2.3114
X4.8364Y-2.3506
X4.8526Y-6.0998
X4.9562Y-2.173
X4.967Y-2.0032
X4.986Y-6.254
X5.017Y-1.314
X5.1662Y-4.0514
X5.1972Y-1.6646
X4.7755Y-3.6546
X4.8936Y-3.6546
X5.0117Y-3.6546
X5.1432Y-6.9234
X5.1432Y-7.0295
X5.1432Y-7.1339
T3
X4.7722Y-7.044
X4.7722Y-7.244
X4.8224Y-5.3166
X4.8224Y-5.5166
X4.8224Y-5.7166
T0
M30
