M48
; DRILL file {KiCad (5.1.6)-1} date 06/22/20 15:58:00
; FORMAT={-:-/ absolute / metric / decimal}
; #@! TF.CreationDate,2020-06-22T15:58:00-05:00
; #@! TF.GenerationSoftware,Kicad,Pcbnew,(5.1.6)-1
; #@! TF.FileFunction,Plated,1,2,PTH
FMAT,2
METRIC
T1C0.762
T2C1.000
T3C1.520
%
G90
G05
T1
X118.11Y-121.158
X118.11Y-123.698
X118.11Y-126.238
X118.11Y-128.778
T2
X110.156Y-134.034
X110.156Y-156.034
X112.836Y-134.034
X112.836Y-156.034
X102.236Y-159.354
X102.236Y-171.354
X118.236Y-159.354
X118.236Y-171.354
X108.506Y-93.98
X111.506Y-93.98
X114.506Y-93.98
T3
X105.156Y-177.546
X110.236Y-177.546
X115.316Y-177.546
X113.284Y-139.446
X113.284Y-144.526
X113.284Y-149.606
X109.474Y-190.754
X114.554Y-190.754
T0
M30
