%TF.GenerationSoftware,KiCad,Pcbnew,(5.1.6)-1*%
%TF.CreationDate,2020-06-22T15:57:52-05:00*%
%TF.ProjectId,LightProyect,4c696768-7450-4726-9f79-6563742e6b69,rev?*%
%TF.SameCoordinates,Original*%
%TF.FileFunction,Copper,L1,Top*%
%TF.FilePolarity,Positive*%
%FSLAX46Y46*%
G04 Gerber Fmt 4.6, Leading zero omitted, Abs format (unit mm)*
G04 Created by KiCad (PCBNEW (5.1.6)-1) date 2020-06-22 15:57:52*
%MOMM*%
%LPD*%
G01*
G04 APERTURE LIST*
%TA.AperFunction,ComponentPad*%
%ADD10R,2.000000X2.000000*%
%TD*%
%TA.AperFunction,SMDPad,CuDef*%
%ADD11R,1.000000X2.200000*%
%TD*%
%TA.AperFunction,ComponentPad*%
%ADD12R,3.000000X3.000000*%
%TD*%
%TA.AperFunction,ComponentPad*%
%ADD13C,3.000000*%
%TD*%
%TA.AperFunction,ComponentPad*%
%ADD14C,2.000000*%
%TD*%
%TA.AperFunction,ComponentPad*%
%ADD15O,2.268000X1.524000*%
%TD*%
%TA.AperFunction,SMDPad,CuDef*%
%ADD16R,1.400000X1.600000*%
%TD*%
%TA.AperFunction,SMDPad,CuDef*%
%ADD17R,2.500000X1.000000*%
%TD*%
%TA.AperFunction,SMDPad,CuDef*%
%ADD18R,1.000000X1.800000*%
%TD*%
%TA.AperFunction,Conductor*%
%ADD19C,0.500000*%
%TD*%
%TA.AperFunction,Conductor*%
%ADD20C,0.250000*%
%TD*%
%TA.AperFunction,Conductor*%
%ADD21C,0.254000*%
%TD*%
G04 APERTURE END LIST*
D10*
%TO.P,M2,4*%
%TO.N,GND*%
X102236000Y-159354000D03*
%TO.P,M2,3*%
%TO.N,Net-(D1-Pad3)*%
X118236000Y-159354000D03*
%TO.P,M2,1*%
%TO.N,VCC*%
X118236000Y-171354000D03*
%TO.P,M2,2*%
%TO.N,GND*%
X102236000Y-171354000D03*
%TD*%
D11*
%TO.P,D1,1*%
%TO.N,GND*%
X115276000Y-28702000D03*
%TO.P,D1,2*%
%TO.N,Net-(D1-Pad2)*%
X112776000Y-28702000D03*
%TO.P,D1,3*%
%TO.N,Net-(D1-Pad3)*%
X110246000Y-28702000D03*
%TD*%
D12*
%TO.P,J1,1*%
%TO.N,GND*%
X114554000Y-190754000D03*
D13*
%TO.P,J1,2*%
%TO.N,VCC*%
X109474000Y-190754000D03*
%TD*%
%TO.P,J2,3*%
%TO.N,GND*%
X115316000Y-177546000D03*
%TO.P,J2,2*%
X110236000Y-177546000D03*
D12*
%TO.P,J2,1*%
%TO.N,VCC*%
X105156000Y-177546000D03*
%TD*%
%TO.P,J3,1*%
%TO.N,GND*%
X113284000Y-149606000D03*
D13*
%TO.P,J3,2*%
%TO.N,Net-(J3-Pad2)*%
X113284000Y-144526000D03*
%TO.P,J3,3*%
%TO.N,Net-(J3-Pad3)*%
X113284000Y-139446000D03*
%TD*%
D14*
%TO.P,M1,3*%
%TO.N,Net-(M1-Pad3)*%
X110156000Y-134034000D03*
%TO.P,M1,4*%
%TO.N,GND*%
X112836000Y-134034000D03*
%TO.P,M1,2*%
X112836000Y-156034000D03*
%TO.P,M1,1*%
%TO.N,Net-(D1-Pad3)*%
X110156000Y-156034000D03*
%TD*%
%TO.P,M3,2*%
%TO.N,Net-(M3-Pad2)*%
X111506000Y-93980000D03*
%TO.P,M3,3*%
%TO.N,GND*%
X108506000Y-93980000D03*
%TO.P,M3,1*%
%TO.N,Net-(D1-Pad3)*%
X114506000Y-93980000D03*
%TD*%
D15*
%TO.P,M4,4*%
%TO.N,Net-(M4-Pad4)*%
X118110000Y-121158000D03*
%TO.P,M4,3*%
%TO.N,Net-(M4-Pad3)*%
X118110000Y-123698000D03*
%TO.P,M4,2*%
%TO.N,GND*%
X118110000Y-126238000D03*
%TO.P,M4,1*%
%TO.N,Net-(M1-Pad3)*%
X118110000Y-128778000D03*
%TD*%
D16*
%TO.P,SW1,1*%
%TO.N,Net-(SW1-Pad1)*%
X111228000Y-104692000D03*
X111228000Y-97492000D03*
%TO.P,SW1,2*%
%TO.N,GND*%
X108228000Y-104692000D03*
X108228000Y-97492000D03*
%TD*%
D17*
%TO.P,U1,1*%
%TO.N,Net-(U1-Pad1)*%
X104414000Y-44760000D03*
%TO.P,U1,2*%
%TO.N,Net-(U1-Pad2)*%
X104414000Y-46760000D03*
%TO.P,U1,3*%
%TO.N,Net-(U1-Pad3)*%
X104414000Y-48760000D03*
%TO.P,U1,4*%
%TO.N,Net-(U1-Pad4)*%
X104414000Y-50760000D03*
%TO.P,U1,5*%
%TO.N,Net-(M4-Pad3)*%
X104414000Y-52760000D03*
%TO.P,U1,6*%
%TO.N,Net-(U1-Pad6)*%
X104414000Y-54760000D03*
%TO.P,U1,7*%
%TO.N,Net-(U1-Pad7)*%
X104414000Y-56760000D03*
%TO.P,U1,8*%
%TO.N,Net-(M1-Pad3)*%
X104414000Y-58760000D03*
D18*
%TO.P,U1,9*%
%TO.N,Net-(U1-Pad9)*%
X107014000Y-60260000D03*
%TO.P,U1,10*%
%TO.N,Net-(U1-Pad10)*%
X109014000Y-60260000D03*
%TO.P,U1,11*%
%TO.N,Net-(M3-Pad2)*%
X111014000Y-60260000D03*
%TO.P,U1,12*%
%TO.N,Net-(D1-Pad2)*%
X113014000Y-60260000D03*
%TO.P,U1,13*%
%TO.N,Net-(U1-Pad13)*%
X115014000Y-60260000D03*
%TO.P,U1,14*%
%TO.N,Net-(U1-Pad14)*%
X117014000Y-60260000D03*
D17*
%TO.P,U1,15*%
%TO.N,GND*%
X119614000Y-58760000D03*
%TO.P,U1,16*%
%TO.N,Net-(U1-Pad16)*%
X119614000Y-56760000D03*
%TO.P,U1,17*%
%TO.N,Net-(M4-Pad4)*%
X119614000Y-54760000D03*
%TO.P,U1,18*%
%TO.N,Net-(SW1-Pad1)*%
X119614000Y-52760000D03*
%TO.P,U1,19*%
%TO.N,Net-(U1-Pad19)*%
X119614000Y-50760000D03*
%TO.P,U1,20*%
%TO.N,Net-(U1-Pad20)*%
X119614000Y-48760000D03*
%TO.P,U1,21*%
%TO.N,Net-(J3-Pad3)*%
X119614000Y-46760000D03*
%TO.P,U1,22*%
%TO.N,Net-(J3-Pad2)*%
X119614000Y-44760000D03*
%TD*%
D19*
%TO.N,GND*%
X112522000Y-179832000D02*
X110236000Y-177546000D01*
X114554000Y-190754000D02*
X114554000Y-180848000D01*
D20*
X114554000Y-190754000D02*
X114554000Y-191262000D01*
X114554000Y-190754000D02*
X114554000Y-181356000D01*
X112436000Y-150454000D02*
X113284000Y-149606000D01*
X102236000Y-159354000D02*
X102616000Y-159734000D01*
D19*
X102236000Y-159354000D02*
X102236000Y-171354000D01*
X112436000Y-134034000D02*
X108966000Y-137504000D01*
X108966000Y-145288000D02*
X113284000Y-149606000D01*
X108966000Y-137504000D02*
X108966000Y-145288000D01*
X102236000Y-159354000D02*
X111918000Y-159354000D01*
X113436000Y-157836000D02*
X113436000Y-156034000D01*
X111918000Y-159354000D02*
X113436000Y-157836000D01*
X112836000Y-134034000D02*
X117680000Y-134034000D01*
X117680000Y-134034000D02*
X120396000Y-131318000D01*
X120396000Y-128524000D02*
X118110000Y-126238000D01*
X120396000Y-131318000D02*
X120396000Y-128524000D01*
D20*
X108506000Y-93980000D02*
X108458000Y-93980000D01*
X108506000Y-97214000D02*
X108228000Y-97492000D01*
D19*
X108506000Y-93980000D02*
X108506000Y-97214000D01*
X120904000Y-117368000D02*
X108228000Y-104692000D01*
X118110000Y-126238000D02*
X119888000Y-126238000D01*
X120904000Y-125222000D02*
X120904000Y-117368000D01*
X119888000Y-126238000D02*
X120904000Y-125222000D01*
X108506000Y-93980000D02*
X108506000Y-79200000D01*
X119614000Y-68092000D02*
X119614000Y-58760000D01*
X108506000Y-79200000D02*
X119614000Y-68092000D01*
X115276000Y-56172000D02*
X115276000Y-28702000D01*
X117864000Y-58760000D02*
X115276000Y-56172000D01*
X119614000Y-58760000D02*
X117864000Y-58760000D01*
X113792000Y-180086000D02*
X114554000Y-180848000D01*
X112776000Y-180086000D02*
X115316000Y-177546000D01*
X112776000Y-180086000D02*
X113792000Y-180086000D01*
%TO.N,VCC*%
X107442000Y-179832000D02*
X105156000Y-177546000D01*
X111348000Y-171354000D02*
X118236000Y-171354000D01*
X105156000Y-177546000D02*
X111348000Y-171354000D01*
X109474000Y-181864000D02*
X107442000Y-179832000D01*
X109474000Y-190754000D02*
X109474000Y-181864000D01*
D20*
%TO.N,Net-(J3-Pad3)*%
X121114000Y-46760000D02*
X119614000Y-46760000D01*
X122428000Y-48074000D02*
X121114000Y-46760000D01*
X122428000Y-136906000D02*
X122428000Y-48074000D01*
X119888000Y-139446000D02*
X122428000Y-136906000D01*
X113284000Y-139446000D02*
X119888000Y-139446000D01*
%TO.N,Net-(J3-Pad2)*%
X121114000Y-44760000D02*
X119614000Y-44760000D01*
X123190000Y-46836000D02*
X121114000Y-44760000D01*
X123190000Y-138938000D02*
X123190000Y-136398000D01*
X117602000Y-144526000D02*
X123190000Y-138938000D01*
X113284000Y-144526000D02*
X117602000Y-144526000D01*
X123190000Y-136652000D02*
X123190000Y-136398000D01*
X123190000Y-136398000D02*
X123190000Y-46836000D01*
%TO.N,Net-(M4-Pad4)*%
X121114000Y-54760000D02*
X119614000Y-54760000D01*
X121114000Y-54760000D02*
X121114000Y-54820000D01*
D19*
%TO.N,Net-(M1-Pad3)*%
X115412000Y-128778000D02*
X118110000Y-128778000D01*
X110156000Y-134034000D02*
X115412000Y-128778000D01*
X102713999Y-62386001D02*
X104414000Y-60686000D01*
X104414000Y-60686000D02*
X104414000Y-58760000D01*
X118110000Y-128778000D02*
X102713999Y-113381999D01*
X102713999Y-113381999D02*
X102713999Y-62386001D01*
D20*
%TO.N,Net-(SW1-Pad1)*%
X121114000Y-52760000D02*
X119614000Y-52760000D01*
X112955002Y-97492000D02*
X112999002Y-97536000D01*
X111228000Y-97492000D02*
X112955002Y-97492000D01*
X121114000Y-52760000D02*
X121666000Y-53312000D01*
X121666000Y-53312000D02*
X121666000Y-94234000D01*
X118364000Y-97536000D02*
X117348000Y-97536000D01*
X112999002Y-97536000D02*
X117348000Y-97536000D01*
X117348000Y-97536000D02*
X117602000Y-97536000D01*
X111228000Y-104692000D02*
X113240000Y-104692000D01*
X121539000Y-96393000D02*
X121539000Y-94361000D01*
X113240000Y-104692000D02*
X121539000Y-96393000D01*
X121666000Y-94234000D02*
X121539000Y-94361000D01*
X121539000Y-94361000D02*
X118364000Y-97536000D01*
%TO.N,Net-(D1-Pad3)*%
X109728000Y-156462000D02*
X110156000Y-156034000D01*
D19*
X110156000Y-156034000D02*
X112266000Y-153924000D01*
X112266000Y-153924000D02*
X115062000Y-153924000D01*
X118236000Y-157098000D02*
X118236000Y-159354000D01*
X115062000Y-153924000D02*
X118236000Y-157098000D01*
D20*
%TO.N,Net-(D1-Pad2)*%
X112776000Y-60022000D02*
X113014000Y-60260000D01*
X112776000Y-28702000D02*
X112776000Y-60022000D01*
%TD*%
D21*
%TO.N,GND*%
G36*
X123340001Y-45911199D02*
G01*
X121677804Y-44249003D01*
X121654001Y-44219999D01*
X121538276Y-44125026D01*
X121476634Y-44092077D01*
X121453502Y-44015820D01*
X121394537Y-43905506D01*
X121315185Y-43808815D01*
X121218494Y-43729463D01*
X121108180Y-43670498D01*
X120988482Y-43634188D01*
X120864000Y-43621928D01*
X118364000Y-43621928D01*
X118239518Y-43634188D01*
X118119820Y-43670498D01*
X118009506Y-43729463D01*
X117912815Y-43808815D01*
X117833463Y-43905506D01*
X117774498Y-44015820D01*
X117738188Y-44135518D01*
X117725928Y-44260000D01*
X117725928Y-45260000D01*
X117738188Y-45384482D01*
X117774498Y-45504180D01*
X117833463Y-45614494D01*
X117912815Y-45711185D01*
X117972296Y-45760000D01*
X117912815Y-45808815D01*
X117833463Y-45905506D01*
X117774498Y-46015820D01*
X117738188Y-46135518D01*
X117725928Y-46260000D01*
X117725928Y-47260000D01*
X117738188Y-47384482D01*
X117774498Y-47504180D01*
X117833463Y-47614494D01*
X117912815Y-47711185D01*
X117972296Y-47760000D01*
X117912815Y-47808815D01*
X117833463Y-47905506D01*
X117774498Y-48015820D01*
X117738188Y-48135518D01*
X117725928Y-48260000D01*
X117725928Y-49260000D01*
X117738188Y-49384482D01*
X117774498Y-49504180D01*
X117833463Y-49614494D01*
X117912815Y-49711185D01*
X117972296Y-49760000D01*
X117912815Y-49808815D01*
X117833463Y-49905506D01*
X117774498Y-50015820D01*
X117738188Y-50135518D01*
X117725928Y-50260000D01*
X117725928Y-51260000D01*
X117738188Y-51384482D01*
X117774498Y-51504180D01*
X117833463Y-51614494D01*
X117912815Y-51711185D01*
X117972296Y-51760000D01*
X117912815Y-51808815D01*
X117833463Y-51905506D01*
X117774498Y-52015820D01*
X117738188Y-52135518D01*
X117725928Y-52260000D01*
X117725928Y-53260000D01*
X117738188Y-53384482D01*
X117774498Y-53504180D01*
X117833463Y-53614494D01*
X117912815Y-53711185D01*
X117972296Y-53760000D01*
X117912815Y-53808815D01*
X117833463Y-53905506D01*
X117774498Y-54015820D01*
X117738188Y-54135518D01*
X117725928Y-54260000D01*
X117725928Y-55260000D01*
X117738188Y-55384482D01*
X117774498Y-55504180D01*
X117833463Y-55614494D01*
X117912815Y-55711185D01*
X117972296Y-55760000D01*
X117912815Y-55808815D01*
X117833463Y-55905506D01*
X117774498Y-56015820D01*
X117738188Y-56135518D01*
X117725928Y-56260000D01*
X117725928Y-57260000D01*
X117738188Y-57384482D01*
X117774498Y-57504180D01*
X117833463Y-57614494D01*
X117912815Y-57711185D01*
X117972296Y-57760000D01*
X117912815Y-57808815D01*
X117833463Y-57905506D01*
X117774498Y-58015820D01*
X117738188Y-58135518D01*
X117725928Y-58260000D01*
X117729000Y-58474250D01*
X117887750Y-58633000D01*
X119487000Y-58633000D01*
X119487000Y-58613000D01*
X119741000Y-58613000D01*
X119741000Y-58633000D01*
X119761000Y-58633000D01*
X119761000Y-58887000D01*
X119741000Y-58887000D01*
X119741000Y-59736250D01*
X119899750Y-59895000D01*
X120864000Y-59898072D01*
X120906000Y-59893935D01*
X120906001Y-93919197D01*
X118049199Y-96776000D01*
X113212786Y-96776000D01*
X113103988Y-96742997D01*
X112992335Y-96732000D01*
X112992324Y-96732000D01*
X112955002Y-96728324D01*
X112917680Y-96732000D01*
X112566072Y-96732000D01*
X112566072Y-96692000D01*
X112553812Y-96567518D01*
X112517502Y-96447820D01*
X112458537Y-96337506D01*
X112379185Y-96240815D01*
X112282494Y-96161463D01*
X112172180Y-96102498D01*
X112052482Y-96066188D01*
X111928000Y-96053928D01*
X110528000Y-96053928D01*
X110403518Y-96066188D01*
X110283820Y-96102498D01*
X110173506Y-96161463D01*
X110076815Y-96240815D01*
X109997463Y-96337506D01*
X109938498Y-96447820D01*
X109902188Y-96567518D01*
X109889928Y-96692000D01*
X109889928Y-98292000D01*
X109902188Y-98416482D01*
X109938498Y-98536180D01*
X109997463Y-98646494D01*
X110076815Y-98743185D01*
X110173506Y-98822537D01*
X110283820Y-98881502D01*
X110403518Y-98917812D01*
X110528000Y-98930072D01*
X111928000Y-98930072D01*
X112052482Y-98917812D01*
X112172180Y-98881502D01*
X112282494Y-98822537D01*
X112379185Y-98743185D01*
X112458537Y-98646494D01*
X112517502Y-98536180D01*
X112553812Y-98416482D01*
X112566072Y-98292000D01*
X112566072Y-98252000D01*
X112741218Y-98252000D01*
X112850016Y-98285003D01*
X112961669Y-98296000D01*
X112961679Y-98296000D01*
X112999001Y-98299676D01*
X113036324Y-98296000D01*
X118326678Y-98296000D01*
X118364000Y-98299676D01*
X118401322Y-98296000D01*
X118401333Y-98296000D01*
X118512986Y-98285003D01*
X118597976Y-98259222D01*
X112925199Y-103932000D01*
X112566072Y-103932000D01*
X112566072Y-103892000D01*
X112553812Y-103767518D01*
X112517502Y-103647820D01*
X112458537Y-103537506D01*
X112379185Y-103440815D01*
X112282494Y-103361463D01*
X112172180Y-103302498D01*
X112052482Y-103266188D01*
X111928000Y-103253928D01*
X110528000Y-103253928D01*
X110403518Y-103266188D01*
X110283820Y-103302498D01*
X110173506Y-103361463D01*
X110076815Y-103440815D01*
X109997463Y-103537506D01*
X109938498Y-103647820D01*
X109902188Y-103767518D01*
X109889928Y-103892000D01*
X109889928Y-105492000D01*
X109902188Y-105616482D01*
X109938498Y-105736180D01*
X109997463Y-105846494D01*
X110076815Y-105943185D01*
X110173506Y-106022537D01*
X110283820Y-106081502D01*
X110403518Y-106117812D01*
X110528000Y-106130072D01*
X111928000Y-106130072D01*
X112052482Y-106117812D01*
X112172180Y-106081502D01*
X112282494Y-106022537D01*
X112379185Y-105943185D01*
X112458537Y-105846494D01*
X112517502Y-105736180D01*
X112553812Y-105616482D01*
X112566072Y-105492000D01*
X112566072Y-105452000D01*
X113202678Y-105452000D01*
X113240000Y-105455676D01*
X113277322Y-105452000D01*
X113277333Y-105452000D01*
X113388986Y-105441003D01*
X113532247Y-105397546D01*
X113664276Y-105326974D01*
X113780001Y-105232001D01*
X113803804Y-105202997D01*
X121668000Y-97338802D01*
X121668000Y-136591197D01*
X119573199Y-138686000D01*
X115280105Y-138686000D01*
X115176012Y-138434698D01*
X114942363Y-138085017D01*
X114644983Y-137787637D01*
X114295302Y-137553988D01*
X113906756Y-137393047D01*
X113494279Y-137311000D01*
X113073721Y-137311000D01*
X112661244Y-137393047D01*
X112272698Y-137553988D01*
X111923017Y-137787637D01*
X111625637Y-138085017D01*
X111391988Y-138434698D01*
X111231047Y-138823244D01*
X111149000Y-139235721D01*
X111149000Y-139656279D01*
X111231047Y-140068756D01*
X111391988Y-140457302D01*
X111625637Y-140806983D01*
X111923017Y-141104363D01*
X112272698Y-141338012D01*
X112661244Y-141498953D01*
X113073721Y-141581000D01*
X113494279Y-141581000D01*
X113906756Y-141498953D01*
X114295302Y-141338012D01*
X114644983Y-141104363D01*
X114942363Y-140806983D01*
X115176012Y-140457302D01*
X115280105Y-140206000D01*
X119850678Y-140206000D01*
X119888000Y-140209676D01*
X119925322Y-140206000D01*
X119925333Y-140206000D01*
X120036986Y-140195003D01*
X120180247Y-140151546D01*
X120312276Y-140080974D01*
X120428001Y-139986001D01*
X120451804Y-139956997D01*
X122430000Y-137978802D01*
X122430000Y-138623197D01*
X117287199Y-143766000D01*
X115280105Y-143766000D01*
X115176012Y-143514698D01*
X114942363Y-143165017D01*
X114644983Y-142867637D01*
X114295302Y-142633988D01*
X113906756Y-142473047D01*
X113494279Y-142391000D01*
X113073721Y-142391000D01*
X112661244Y-142473047D01*
X112272698Y-142633988D01*
X111923017Y-142867637D01*
X111625637Y-143165017D01*
X111391988Y-143514698D01*
X111231047Y-143903244D01*
X111149000Y-144315721D01*
X111149000Y-144736279D01*
X111231047Y-145148756D01*
X111391988Y-145537302D01*
X111625637Y-145886983D01*
X111923017Y-146184363D01*
X112272698Y-146418012D01*
X112661244Y-146578953D01*
X113073721Y-146661000D01*
X113494279Y-146661000D01*
X113906756Y-146578953D01*
X114295302Y-146418012D01*
X114644983Y-146184363D01*
X114942363Y-145886983D01*
X115176012Y-145537302D01*
X115280105Y-145286000D01*
X117564678Y-145286000D01*
X117602000Y-145289676D01*
X117639322Y-145286000D01*
X117639333Y-145286000D01*
X117750986Y-145275003D01*
X117894247Y-145231546D01*
X118026276Y-145160974D01*
X118142001Y-145066001D01*
X118165804Y-145036997D01*
X123340000Y-139862803D01*
X123340000Y-197340000D01*
X99660000Y-197340000D01*
X99660000Y-184092305D01*
X100681313Y-184092305D01*
X100681313Y-184715695D01*
X100802930Y-185327105D01*
X101041490Y-185903042D01*
X101387827Y-186421371D01*
X101828629Y-186862173D01*
X102346958Y-187208510D01*
X102922895Y-187447070D01*
X103534305Y-187568687D01*
X104157695Y-187568687D01*
X104769105Y-187447070D01*
X105345042Y-187208510D01*
X105863371Y-186862173D01*
X106304173Y-186421371D01*
X106650510Y-185903042D01*
X106889070Y-185327105D01*
X107010687Y-184715695D01*
X107010687Y-184092305D01*
X106889070Y-183480895D01*
X106650510Y-182904958D01*
X106304173Y-182386629D01*
X105863371Y-181945827D01*
X105345042Y-181599490D01*
X104769105Y-181360930D01*
X104157695Y-181239313D01*
X103534305Y-181239313D01*
X102922895Y-181360930D01*
X102346958Y-181599490D01*
X101828629Y-181945827D01*
X101387827Y-182386629D01*
X101041490Y-182904958D01*
X100802930Y-183480895D01*
X100681313Y-184092305D01*
X99660000Y-184092305D01*
X99660000Y-176046000D01*
X103017928Y-176046000D01*
X103017928Y-179046000D01*
X103030188Y-179170482D01*
X103066498Y-179290180D01*
X103125463Y-179400494D01*
X103204815Y-179497185D01*
X103301506Y-179576537D01*
X103411820Y-179635502D01*
X103531518Y-179671812D01*
X103656000Y-179684072D01*
X106042493Y-179684072D01*
X106846953Y-180488532D01*
X106846958Y-180488536D01*
X108589001Y-182230580D01*
X108589000Y-188809672D01*
X108462698Y-188861988D01*
X108113017Y-189095637D01*
X107815637Y-189393017D01*
X107581988Y-189742698D01*
X107421047Y-190131244D01*
X107339000Y-190543721D01*
X107339000Y-190964279D01*
X107421047Y-191376756D01*
X107581988Y-191765302D01*
X107815637Y-192114983D01*
X108113017Y-192412363D01*
X108462698Y-192646012D01*
X108851244Y-192806953D01*
X109263721Y-192889000D01*
X109684279Y-192889000D01*
X110096756Y-192806953D01*
X110485302Y-192646012D01*
X110834983Y-192412363D01*
X110993346Y-192254000D01*
X112415928Y-192254000D01*
X112428188Y-192378482D01*
X112464498Y-192498180D01*
X112523463Y-192608494D01*
X112602815Y-192705185D01*
X112699506Y-192784537D01*
X112809820Y-192843502D01*
X112929518Y-192879812D01*
X113054000Y-192892072D01*
X114268250Y-192889000D01*
X114427000Y-192730250D01*
X114427000Y-190881000D01*
X114681000Y-190881000D01*
X114681000Y-192730250D01*
X114839750Y-192889000D01*
X116054000Y-192892072D01*
X116178482Y-192879812D01*
X116298180Y-192843502D01*
X116408494Y-192784537D01*
X116505185Y-192705185D01*
X116584537Y-192608494D01*
X116643502Y-192498180D01*
X116679812Y-192378482D01*
X116692072Y-192254000D01*
X116689000Y-191039750D01*
X116530250Y-190881000D01*
X114681000Y-190881000D01*
X114427000Y-190881000D01*
X112577750Y-190881000D01*
X112419000Y-191039750D01*
X112415928Y-192254000D01*
X110993346Y-192254000D01*
X111132363Y-192114983D01*
X111366012Y-191765302D01*
X111526953Y-191376756D01*
X111609000Y-190964279D01*
X111609000Y-190543721D01*
X111526953Y-190131244D01*
X111366012Y-189742698D01*
X111132363Y-189393017D01*
X110993346Y-189254000D01*
X112415928Y-189254000D01*
X112419000Y-190468250D01*
X112577750Y-190627000D01*
X114427000Y-190627000D01*
X114427000Y-188777750D01*
X114681000Y-188777750D01*
X114681000Y-190627000D01*
X116530250Y-190627000D01*
X116689000Y-190468250D01*
X116692072Y-189254000D01*
X116679812Y-189129518D01*
X116643502Y-189009820D01*
X116584537Y-188899506D01*
X116505185Y-188802815D01*
X116408494Y-188723463D01*
X116298180Y-188664498D01*
X116178482Y-188628188D01*
X116054000Y-188615928D01*
X114839750Y-188619000D01*
X114681000Y-188777750D01*
X114427000Y-188777750D01*
X114268250Y-188619000D01*
X113054000Y-188615928D01*
X112929518Y-188628188D01*
X112809820Y-188664498D01*
X112699506Y-188723463D01*
X112602815Y-188802815D01*
X112523463Y-188899506D01*
X112464498Y-189009820D01*
X112428188Y-189129518D01*
X112415928Y-189254000D01*
X110993346Y-189254000D01*
X110834983Y-189095637D01*
X110485302Y-188861988D01*
X110359000Y-188809672D01*
X110359000Y-183838305D01*
X115199313Y-183838305D01*
X115199313Y-184461695D01*
X115320930Y-185073105D01*
X115559490Y-185649042D01*
X115905827Y-186167371D01*
X116346629Y-186608173D01*
X116864958Y-186954510D01*
X117440895Y-187193070D01*
X118052305Y-187314687D01*
X118675695Y-187314687D01*
X119287105Y-187193070D01*
X119863042Y-186954510D01*
X120381371Y-186608173D01*
X120822173Y-186167371D01*
X121168510Y-185649042D01*
X121407070Y-185073105D01*
X121528687Y-184461695D01*
X121528687Y-183838305D01*
X121407070Y-183226895D01*
X121168510Y-182650958D01*
X120822173Y-182132629D01*
X120381371Y-181691827D01*
X119863042Y-181345490D01*
X119287105Y-181106930D01*
X118675695Y-180985313D01*
X118052305Y-180985313D01*
X117440895Y-181106930D01*
X116864958Y-181345490D01*
X116346629Y-181691827D01*
X115905827Y-182132629D01*
X115559490Y-182650958D01*
X115320930Y-183226895D01*
X115199313Y-183838305D01*
X110359000Y-183838305D01*
X110359000Y-181907469D01*
X110363281Y-181864000D01*
X110359000Y-181820531D01*
X110359000Y-181820523D01*
X110346195Y-181690510D01*
X110295589Y-181523687D01*
X110213411Y-181369941D01*
X110102817Y-181235183D01*
X110069049Y-181207470D01*
X108098536Y-179236958D01*
X108098532Y-179236953D01*
X107899232Y-179037653D01*
X108923952Y-179037653D01*
X109079962Y-179353214D01*
X109454745Y-179544020D01*
X109859551Y-179658044D01*
X110278824Y-179690902D01*
X110696451Y-179641334D01*
X111096383Y-179511243D01*
X111392038Y-179353214D01*
X111548048Y-179037653D01*
X114003952Y-179037653D01*
X114159962Y-179353214D01*
X114534745Y-179544020D01*
X114939551Y-179658044D01*
X115358824Y-179690902D01*
X115776451Y-179641334D01*
X116176383Y-179511243D01*
X116472038Y-179353214D01*
X116628048Y-179037653D01*
X115316000Y-177725605D01*
X114003952Y-179037653D01*
X111548048Y-179037653D01*
X110236000Y-177725605D01*
X108923952Y-179037653D01*
X107899232Y-179037653D01*
X107294072Y-178432493D01*
X107294072Y-177588824D01*
X108091098Y-177588824D01*
X108140666Y-178006451D01*
X108270757Y-178406383D01*
X108428786Y-178702038D01*
X108744347Y-178858048D01*
X110056395Y-177546000D01*
X110415605Y-177546000D01*
X111727653Y-178858048D01*
X112043214Y-178702038D01*
X112234020Y-178327255D01*
X112348044Y-177922449D01*
X112374189Y-177588824D01*
X113171098Y-177588824D01*
X113220666Y-178006451D01*
X113350757Y-178406383D01*
X113508786Y-178702038D01*
X113824347Y-178858048D01*
X115136395Y-177546000D01*
X115495605Y-177546000D01*
X116807653Y-178858048D01*
X117123214Y-178702038D01*
X117314020Y-178327255D01*
X117428044Y-177922449D01*
X117460902Y-177503176D01*
X117411334Y-177085549D01*
X117281243Y-176685617D01*
X117123214Y-176389962D01*
X116807653Y-176233952D01*
X115495605Y-177546000D01*
X115136395Y-177546000D01*
X113824347Y-176233952D01*
X113508786Y-176389962D01*
X113317980Y-176764745D01*
X113203956Y-177169551D01*
X113171098Y-177588824D01*
X112374189Y-177588824D01*
X112380902Y-177503176D01*
X112331334Y-177085549D01*
X112201243Y-176685617D01*
X112043214Y-176389962D01*
X111727653Y-176233952D01*
X110415605Y-177546000D01*
X110056395Y-177546000D01*
X108744347Y-176233952D01*
X108428786Y-176389962D01*
X108237980Y-176764745D01*
X108123956Y-177169551D01*
X108091098Y-177588824D01*
X107294072Y-177588824D01*
X107294072Y-176659506D01*
X107899231Y-176054347D01*
X108923952Y-176054347D01*
X110236000Y-177366395D01*
X111548048Y-176054347D01*
X114003952Y-176054347D01*
X115316000Y-177366395D01*
X116628048Y-176054347D01*
X116472038Y-175738786D01*
X116097255Y-175547980D01*
X115692449Y-175433956D01*
X115273176Y-175401098D01*
X114855549Y-175450666D01*
X114455617Y-175580757D01*
X114159962Y-175738786D01*
X114003952Y-176054347D01*
X111548048Y-176054347D01*
X111392038Y-175738786D01*
X111017255Y-175547980D01*
X110612449Y-175433956D01*
X110193176Y-175401098D01*
X109775549Y-175450666D01*
X109375617Y-175580757D01*
X109079962Y-175738786D01*
X108923952Y-176054347D01*
X107899231Y-176054347D01*
X111714579Y-172239000D01*
X116597928Y-172239000D01*
X116597928Y-172354000D01*
X116610188Y-172478482D01*
X116646498Y-172598180D01*
X116705463Y-172708494D01*
X116784815Y-172805185D01*
X116881506Y-172884537D01*
X116991820Y-172943502D01*
X117111518Y-172979812D01*
X117236000Y-172992072D01*
X119236000Y-172992072D01*
X119360482Y-172979812D01*
X119480180Y-172943502D01*
X119590494Y-172884537D01*
X119687185Y-172805185D01*
X119766537Y-172708494D01*
X119825502Y-172598180D01*
X119861812Y-172478482D01*
X119874072Y-172354000D01*
X119874072Y-170354000D01*
X119861812Y-170229518D01*
X119825502Y-170109820D01*
X119766537Y-169999506D01*
X119687185Y-169902815D01*
X119590494Y-169823463D01*
X119480180Y-169764498D01*
X119360482Y-169728188D01*
X119236000Y-169715928D01*
X117236000Y-169715928D01*
X117111518Y-169728188D01*
X116991820Y-169764498D01*
X116881506Y-169823463D01*
X116784815Y-169902815D01*
X116705463Y-169999506D01*
X116646498Y-170109820D01*
X116610188Y-170229518D01*
X116597928Y-170354000D01*
X116597928Y-170469000D01*
X111391465Y-170469000D01*
X111347999Y-170464719D01*
X111304533Y-170469000D01*
X111304523Y-170469000D01*
X111174510Y-170481805D01*
X111007687Y-170532411D01*
X110853941Y-170614589D01*
X110853939Y-170614590D01*
X110853940Y-170614590D01*
X110752953Y-170697468D01*
X110752951Y-170697470D01*
X110719183Y-170725183D01*
X110691470Y-170758951D01*
X106042494Y-175407928D01*
X103656000Y-175407928D01*
X103531518Y-175420188D01*
X103411820Y-175456498D01*
X103301506Y-175515463D01*
X103204815Y-175594815D01*
X103125463Y-175691506D01*
X103066498Y-175801820D01*
X103030188Y-175921518D01*
X103017928Y-176046000D01*
X99660000Y-176046000D01*
X99660000Y-172354000D01*
X100597928Y-172354000D01*
X100610188Y-172478482D01*
X100646498Y-172598180D01*
X100705463Y-172708494D01*
X100784815Y-172805185D01*
X100881506Y-172884537D01*
X100991820Y-172943502D01*
X101111518Y-172979812D01*
X101236000Y-172992072D01*
X101950250Y-172989000D01*
X102109000Y-172830250D01*
X102109000Y-171481000D01*
X102363000Y-171481000D01*
X102363000Y-172830250D01*
X102521750Y-172989000D01*
X103236000Y-172992072D01*
X103360482Y-172979812D01*
X103480180Y-172943502D01*
X103590494Y-172884537D01*
X103687185Y-172805185D01*
X103766537Y-172708494D01*
X103825502Y-172598180D01*
X103861812Y-172478482D01*
X103874072Y-172354000D01*
X103871000Y-171639750D01*
X103712250Y-171481000D01*
X102363000Y-171481000D01*
X102109000Y-171481000D01*
X100759750Y-171481000D01*
X100601000Y-171639750D01*
X100597928Y-172354000D01*
X99660000Y-172354000D01*
X99660000Y-170354000D01*
X100597928Y-170354000D01*
X100601000Y-171068250D01*
X100759750Y-171227000D01*
X102109000Y-171227000D01*
X102109000Y-169877750D01*
X102363000Y-169877750D01*
X102363000Y-171227000D01*
X103712250Y-171227000D01*
X103871000Y-171068250D01*
X103874072Y-170354000D01*
X103861812Y-170229518D01*
X103825502Y-170109820D01*
X103766537Y-169999506D01*
X103687185Y-169902815D01*
X103590494Y-169823463D01*
X103480180Y-169764498D01*
X103360482Y-169728188D01*
X103236000Y-169715928D01*
X102521750Y-169719000D01*
X102363000Y-169877750D01*
X102109000Y-169877750D01*
X101950250Y-169719000D01*
X101236000Y-169715928D01*
X101111518Y-169728188D01*
X100991820Y-169764498D01*
X100881506Y-169823463D01*
X100784815Y-169902815D01*
X100705463Y-169999506D01*
X100646498Y-170109820D01*
X100610188Y-170229518D01*
X100597928Y-170354000D01*
X99660000Y-170354000D01*
X99660000Y-160354000D01*
X100597928Y-160354000D01*
X100610188Y-160478482D01*
X100646498Y-160598180D01*
X100705463Y-160708494D01*
X100784815Y-160805185D01*
X100881506Y-160884537D01*
X100991820Y-160943502D01*
X101111518Y-160979812D01*
X101236000Y-160992072D01*
X101950250Y-160989000D01*
X102109000Y-160830250D01*
X102109000Y-159481000D01*
X102363000Y-159481000D01*
X102363000Y-160830250D01*
X102521750Y-160989000D01*
X103236000Y-160992072D01*
X103360482Y-160979812D01*
X103480180Y-160943502D01*
X103590494Y-160884537D01*
X103687185Y-160805185D01*
X103766537Y-160708494D01*
X103825502Y-160598180D01*
X103861812Y-160478482D01*
X103874072Y-160354000D01*
X103871000Y-159639750D01*
X103712250Y-159481000D01*
X102363000Y-159481000D01*
X102109000Y-159481000D01*
X100759750Y-159481000D01*
X100601000Y-159639750D01*
X100597928Y-160354000D01*
X99660000Y-160354000D01*
X99660000Y-158354000D01*
X100597928Y-158354000D01*
X100601000Y-159068250D01*
X100759750Y-159227000D01*
X102109000Y-159227000D01*
X102109000Y-157877750D01*
X102363000Y-157877750D01*
X102363000Y-159227000D01*
X103712250Y-159227000D01*
X103871000Y-159068250D01*
X103874072Y-158354000D01*
X103861812Y-158229518D01*
X103825502Y-158109820D01*
X103766537Y-157999506D01*
X103687185Y-157902815D01*
X103590494Y-157823463D01*
X103480180Y-157764498D01*
X103360482Y-157728188D01*
X103236000Y-157715928D01*
X102521750Y-157719000D01*
X102363000Y-157877750D01*
X102109000Y-157877750D01*
X101950250Y-157719000D01*
X101236000Y-157715928D01*
X101111518Y-157728188D01*
X100991820Y-157764498D01*
X100881506Y-157823463D01*
X100784815Y-157902815D01*
X100705463Y-157999506D01*
X100646498Y-158109820D01*
X100610188Y-158229518D01*
X100597928Y-158354000D01*
X99660000Y-158354000D01*
X99660000Y-155872967D01*
X108521000Y-155872967D01*
X108521000Y-156195033D01*
X108583832Y-156510912D01*
X108707082Y-156808463D01*
X108886013Y-157076252D01*
X109113748Y-157303987D01*
X109381537Y-157482918D01*
X109679088Y-157606168D01*
X109994967Y-157669000D01*
X110317033Y-157669000D01*
X110632912Y-157606168D01*
X110930463Y-157482918D01*
X111198252Y-157303987D01*
X111332826Y-157169413D01*
X111880192Y-157169413D01*
X111975956Y-157433814D01*
X112265571Y-157574704D01*
X112577108Y-157656384D01*
X112898595Y-157675718D01*
X113217675Y-157631961D01*
X113522088Y-157526795D01*
X113696044Y-157433814D01*
X113791808Y-157169413D01*
X112836000Y-156213605D01*
X111880192Y-157169413D01*
X111332826Y-157169413D01*
X111425987Y-157076252D01*
X111525999Y-156926574D01*
X111700587Y-156989808D01*
X112656395Y-156034000D01*
X113015605Y-156034000D01*
X113971413Y-156989808D01*
X114235814Y-156894044D01*
X114376704Y-156604429D01*
X114458384Y-156292892D01*
X114477718Y-155971405D01*
X114433961Y-155652325D01*
X114328795Y-155347912D01*
X114235814Y-155173956D01*
X113971413Y-155078192D01*
X113015605Y-156034000D01*
X112656395Y-156034000D01*
X112642253Y-156019858D01*
X112821858Y-155840253D01*
X112836000Y-155854395D01*
X113791808Y-154898587D01*
X113759360Y-154809000D01*
X114695422Y-154809000D01*
X117351000Y-157464579D01*
X117351000Y-157715928D01*
X117236000Y-157715928D01*
X117111518Y-157728188D01*
X116991820Y-157764498D01*
X116881506Y-157823463D01*
X116784815Y-157902815D01*
X116705463Y-157999506D01*
X116646498Y-158109820D01*
X116610188Y-158229518D01*
X116597928Y-158354000D01*
X116597928Y-160354000D01*
X116610188Y-160478482D01*
X116646498Y-160598180D01*
X116705463Y-160708494D01*
X116784815Y-160805185D01*
X116881506Y-160884537D01*
X116991820Y-160943502D01*
X117111518Y-160979812D01*
X117236000Y-160992072D01*
X119236000Y-160992072D01*
X119360482Y-160979812D01*
X119480180Y-160943502D01*
X119590494Y-160884537D01*
X119687185Y-160805185D01*
X119766537Y-160708494D01*
X119825502Y-160598180D01*
X119861812Y-160478482D01*
X119874072Y-160354000D01*
X119874072Y-158354000D01*
X119861812Y-158229518D01*
X119825502Y-158109820D01*
X119766537Y-157999506D01*
X119687185Y-157902815D01*
X119590494Y-157823463D01*
X119480180Y-157764498D01*
X119360482Y-157728188D01*
X119236000Y-157715928D01*
X119121000Y-157715928D01*
X119121000Y-157141469D01*
X119125281Y-157098000D01*
X119121000Y-157054531D01*
X119121000Y-157054523D01*
X119108195Y-156924510D01*
X119057589Y-156757687D01*
X118975411Y-156603941D01*
X118892532Y-156502953D01*
X118892530Y-156502951D01*
X118864817Y-156469183D01*
X118831050Y-156441471D01*
X115718534Y-153328956D01*
X115690817Y-153295183D01*
X115556059Y-153184589D01*
X115402313Y-153102411D01*
X115235490Y-153051805D01*
X115105477Y-153039000D01*
X115105469Y-153039000D01*
X115062000Y-153034719D01*
X115018531Y-153039000D01*
X112309469Y-153039000D01*
X112266000Y-153034719D01*
X112222531Y-153039000D01*
X112222523Y-153039000D01*
X112092510Y-153051805D01*
X111925686Y-153102411D01*
X111771941Y-153184589D01*
X111670953Y-153267468D01*
X111670951Y-153267470D01*
X111637183Y-153295183D01*
X111609470Y-153328951D01*
X110502525Y-154435897D01*
X110317033Y-154399000D01*
X109994967Y-154399000D01*
X109679088Y-154461832D01*
X109381537Y-154585082D01*
X109113748Y-154764013D01*
X108886013Y-154991748D01*
X108707082Y-155259537D01*
X108583832Y-155557088D01*
X108521000Y-155872967D01*
X99660000Y-155872967D01*
X99660000Y-151106000D01*
X111145928Y-151106000D01*
X111158188Y-151230482D01*
X111194498Y-151350180D01*
X111253463Y-151460494D01*
X111332815Y-151557185D01*
X111429506Y-151636537D01*
X111539820Y-151695502D01*
X111659518Y-151731812D01*
X111784000Y-151744072D01*
X112998250Y-151741000D01*
X113157000Y-151582250D01*
X113157000Y-149733000D01*
X113411000Y-149733000D01*
X113411000Y-151582250D01*
X113569750Y-151741000D01*
X114784000Y-151744072D01*
X114908482Y-151731812D01*
X115028180Y-151695502D01*
X115138494Y-151636537D01*
X115235185Y-151557185D01*
X115314537Y-151460494D01*
X115373502Y-151350180D01*
X115409812Y-151230482D01*
X115422072Y-151106000D01*
X115419000Y-149891750D01*
X115260250Y-149733000D01*
X113411000Y-149733000D01*
X113157000Y-149733000D01*
X111307750Y-149733000D01*
X111149000Y-149891750D01*
X111145928Y-151106000D01*
X99660000Y-151106000D01*
X99660000Y-148106000D01*
X111145928Y-148106000D01*
X111149000Y-149320250D01*
X111307750Y-149479000D01*
X113157000Y-149479000D01*
X113157000Y-147629750D01*
X113411000Y-147629750D01*
X113411000Y-149479000D01*
X115260250Y-149479000D01*
X115419000Y-149320250D01*
X115422072Y-148106000D01*
X115409812Y-147981518D01*
X115373502Y-147861820D01*
X115314537Y-147751506D01*
X115235185Y-147654815D01*
X115138494Y-147575463D01*
X115028180Y-147516498D01*
X114908482Y-147480188D01*
X114784000Y-147467928D01*
X113569750Y-147471000D01*
X113411000Y-147629750D01*
X113157000Y-147629750D01*
X112998250Y-147471000D01*
X111784000Y-147467928D01*
X111659518Y-147480188D01*
X111539820Y-147516498D01*
X111429506Y-147575463D01*
X111332815Y-147654815D01*
X111253463Y-147751506D01*
X111194498Y-147861820D01*
X111158188Y-147981518D01*
X111145928Y-148106000D01*
X99660000Y-148106000D01*
X99660000Y-62386001D01*
X101824718Y-62386001D01*
X101829000Y-62429480D01*
X101828999Y-113338530D01*
X101824718Y-113381999D01*
X101828999Y-113425468D01*
X101828999Y-113425475D01*
X101841804Y-113555488D01*
X101892410Y-113722311D01*
X101974588Y-113876057D01*
X102085182Y-114010816D01*
X102118955Y-114038533D01*
X115973421Y-127893000D01*
X115455465Y-127893000D01*
X115411999Y-127888719D01*
X115368533Y-127893000D01*
X115368523Y-127893000D01*
X115238510Y-127905805D01*
X115071687Y-127956411D01*
X114917941Y-128038589D01*
X114917939Y-128038590D01*
X114917940Y-128038590D01*
X114816953Y-128121468D01*
X114816951Y-128121470D01*
X114783183Y-128149183D01*
X114755470Y-128182951D01*
X110502525Y-132435897D01*
X110317033Y-132399000D01*
X109994967Y-132399000D01*
X109679088Y-132461832D01*
X109381537Y-132585082D01*
X109113748Y-132764013D01*
X108886013Y-132991748D01*
X108707082Y-133259537D01*
X108583832Y-133557088D01*
X108521000Y-133872967D01*
X108521000Y-134195033D01*
X108583832Y-134510912D01*
X108707082Y-134808463D01*
X108886013Y-135076252D01*
X109113748Y-135303987D01*
X109381537Y-135482918D01*
X109679088Y-135606168D01*
X109994967Y-135669000D01*
X110317033Y-135669000D01*
X110632912Y-135606168D01*
X110930463Y-135482918D01*
X111198252Y-135303987D01*
X111332826Y-135169413D01*
X111880192Y-135169413D01*
X111975956Y-135433814D01*
X112265571Y-135574704D01*
X112577108Y-135656384D01*
X112898595Y-135675718D01*
X113217675Y-135631961D01*
X113522088Y-135526795D01*
X113696044Y-135433814D01*
X113791808Y-135169413D01*
X112836000Y-134213605D01*
X111880192Y-135169413D01*
X111332826Y-135169413D01*
X111425987Y-135076252D01*
X111525999Y-134926574D01*
X111700587Y-134989808D01*
X112656395Y-134034000D01*
X113015605Y-134034000D01*
X113971413Y-134989808D01*
X114235814Y-134894044D01*
X114376704Y-134604429D01*
X114458384Y-134292892D01*
X114477718Y-133971405D01*
X114433961Y-133652325D01*
X114328795Y-133347912D01*
X114235814Y-133173956D01*
X113971413Y-133078192D01*
X113015605Y-134034000D01*
X112656395Y-134034000D01*
X112642253Y-134019858D01*
X112821858Y-133840253D01*
X112836000Y-133854395D01*
X113791808Y-132898587D01*
X113696044Y-132634186D01*
X113406429Y-132493296D01*
X113094892Y-132411616D01*
X113033646Y-132407933D01*
X115778579Y-129663000D01*
X116657081Y-129663000D01*
X116745392Y-129770608D01*
X116958113Y-129945183D01*
X117200805Y-130074904D01*
X117464140Y-130154786D01*
X117669375Y-130175000D01*
X118550625Y-130175000D01*
X118755860Y-130154786D01*
X119019195Y-130074904D01*
X119261887Y-129945183D01*
X119474608Y-129770608D01*
X119649183Y-129557887D01*
X119778904Y-129315195D01*
X119858786Y-129051860D01*
X119885759Y-128778000D01*
X119858786Y-128504140D01*
X119778904Y-128240805D01*
X119649183Y-127998113D01*
X119474608Y-127785392D01*
X119261887Y-127610817D01*
X119067587Y-127506962D01*
X119133942Y-127480059D01*
X119363729Y-127329006D01*
X119559632Y-127136026D01*
X119714122Y-126908535D01*
X119821262Y-126655276D01*
X119836220Y-126581070D01*
X119713720Y-126365000D01*
X118237000Y-126365000D01*
X118237000Y-126385000D01*
X117983000Y-126385000D01*
X117983000Y-126365000D01*
X117963000Y-126365000D01*
X117963000Y-126111000D01*
X117983000Y-126111000D01*
X117983000Y-126091000D01*
X118237000Y-126091000D01*
X118237000Y-126111000D01*
X119713720Y-126111000D01*
X119836220Y-125894930D01*
X119821262Y-125820724D01*
X119714122Y-125567465D01*
X119559632Y-125339974D01*
X119363729Y-125146994D01*
X119133942Y-124995941D01*
X119067587Y-124969038D01*
X119261887Y-124865183D01*
X119474608Y-124690608D01*
X119649183Y-124477887D01*
X119778904Y-124235195D01*
X119858786Y-123971860D01*
X119885759Y-123698000D01*
X119858786Y-123424140D01*
X119778904Y-123160805D01*
X119649183Y-122918113D01*
X119474608Y-122705392D01*
X119261887Y-122530817D01*
X119069529Y-122428000D01*
X119261887Y-122325183D01*
X119474608Y-122150608D01*
X119649183Y-121937887D01*
X119778904Y-121695195D01*
X119858786Y-121431860D01*
X119885759Y-121158000D01*
X119858786Y-120884140D01*
X119778904Y-120620805D01*
X119649183Y-120378113D01*
X119474608Y-120165392D01*
X119261887Y-119990817D01*
X119019195Y-119861096D01*
X118755860Y-119781214D01*
X118550625Y-119761000D01*
X117669375Y-119761000D01*
X117464140Y-119781214D01*
X117200805Y-119861096D01*
X116958113Y-119990817D01*
X116745392Y-120165392D01*
X116570817Y-120378113D01*
X116441096Y-120620805D01*
X116361214Y-120884140D01*
X116334241Y-121158000D01*
X116361214Y-121431860D01*
X116441096Y-121695195D01*
X116570817Y-121937887D01*
X116745392Y-122150608D01*
X116958113Y-122325183D01*
X117150471Y-122428000D01*
X116958113Y-122530817D01*
X116745392Y-122705392D01*
X116570817Y-122918113D01*
X116441096Y-123160805D01*
X116361214Y-123424140D01*
X116334241Y-123698000D01*
X116361214Y-123971860D01*
X116441096Y-124235195D01*
X116570817Y-124477887D01*
X116745392Y-124690608D01*
X116958113Y-124865183D01*
X117152413Y-124969038D01*
X117086058Y-124995941D01*
X116856271Y-125146994D01*
X116660368Y-125339974D01*
X116505878Y-125567465D01*
X116400392Y-125816813D01*
X103598999Y-113015421D01*
X103598999Y-105492000D01*
X106889928Y-105492000D01*
X106902188Y-105616482D01*
X106938498Y-105736180D01*
X106997463Y-105846494D01*
X107076815Y-105943185D01*
X107173506Y-106022537D01*
X107283820Y-106081502D01*
X107403518Y-106117812D01*
X107528000Y-106130072D01*
X107942250Y-106127000D01*
X108101000Y-105968250D01*
X108101000Y-104819000D01*
X108355000Y-104819000D01*
X108355000Y-105968250D01*
X108513750Y-106127000D01*
X108928000Y-106130072D01*
X109052482Y-106117812D01*
X109172180Y-106081502D01*
X109282494Y-106022537D01*
X109379185Y-105943185D01*
X109458537Y-105846494D01*
X109517502Y-105736180D01*
X109553812Y-105616482D01*
X109566072Y-105492000D01*
X109563000Y-104977750D01*
X109404250Y-104819000D01*
X108355000Y-104819000D01*
X108101000Y-104819000D01*
X107051750Y-104819000D01*
X106893000Y-104977750D01*
X106889928Y-105492000D01*
X103598999Y-105492000D01*
X103598999Y-103892000D01*
X106889928Y-103892000D01*
X106893000Y-104406250D01*
X107051750Y-104565000D01*
X108101000Y-104565000D01*
X108101000Y-103415750D01*
X108355000Y-103415750D01*
X108355000Y-104565000D01*
X109404250Y-104565000D01*
X109563000Y-104406250D01*
X109566072Y-103892000D01*
X109553812Y-103767518D01*
X109517502Y-103647820D01*
X109458537Y-103537506D01*
X109379185Y-103440815D01*
X109282494Y-103361463D01*
X109172180Y-103302498D01*
X109052482Y-103266188D01*
X108928000Y-103253928D01*
X108513750Y-103257000D01*
X108355000Y-103415750D01*
X108101000Y-103415750D01*
X107942250Y-103257000D01*
X107528000Y-103253928D01*
X107403518Y-103266188D01*
X107283820Y-103302498D01*
X107173506Y-103361463D01*
X107076815Y-103440815D01*
X106997463Y-103537506D01*
X106938498Y-103647820D01*
X106902188Y-103767518D01*
X106889928Y-103892000D01*
X103598999Y-103892000D01*
X103598999Y-98292000D01*
X106889928Y-98292000D01*
X106902188Y-98416482D01*
X106938498Y-98536180D01*
X106997463Y-98646494D01*
X107076815Y-98743185D01*
X107173506Y-98822537D01*
X107283820Y-98881502D01*
X107403518Y-98917812D01*
X107528000Y-98930072D01*
X107942250Y-98927000D01*
X108101000Y-98768250D01*
X108101000Y-97619000D01*
X108355000Y-97619000D01*
X108355000Y-98768250D01*
X108513750Y-98927000D01*
X108928000Y-98930072D01*
X109052482Y-98917812D01*
X109172180Y-98881502D01*
X109282494Y-98822537D01*
X109379185Y-98743185D01*
X109458537Y-98646494D01*
X109517502Y-98536180D01*
X109553812Y-98416482D01*
X109566072Y-98292000D01*
X109563000Y-97777750D01*
X109404250Y-97619000D01*
X108355000Y-97619000D01*
X108101000Y-97619000D01*
X107051750Y-97619000D01*
X106893000Y-97777750D01*
X106889928Y-98292000D01*
X103598999Y-98292000D01*
X103598999Y-96692000D01*
X106889928Y-96692000D01*
X106893000Y-97206250D01*
X107051750Y-97365000D01*
X108101000Y-97365000D01*
X108101000Y-96215750D01*
X108355000Y-96215750D01*
X108355000Y-97365000D01*
X109404250Y-97365000D01*
X109563000Y-97206250D01*
X109566072Y-96692000D01*
X109553812Y-96567518D01*
X109517502Y-96447820D01*
X109458537Y-96337506D01*
X109379185Y-96240815D01*
X109282494Y-96161463D01*
X109172180Y-96102498D01*
X109052482Y-96066188D01*
X108928000Y-96053928D01*
X108513750Y-96057000D01*
X108355000Y-96215750D01*
X108101000Y-96215750D01*
X107942250Y-96057000D01*
X107528000Y-96053928D01*
X107403518Y-96066188D01*
X107283820Y-96102498D01*
X107173506Y-96161463D01*
X107076815Y-96240815D01*
X106997463Y-96337506D01*
X106938498Y-96447820D01*
X106902188Y-96567518D01*
X106889928Y-96692000D01*
X103598999Y-96692000D01*
X103598999Y-95115413D01*
X107550192Y-95115413D01*
X107645956Y-95379814D01*
X107935571Y-95520704D01*
X108247108Y-95602384D01*
X108568595Y-95621718D01*
X108887675Y-95577961D01*
X109192088Y-95472795D01*
X109366044Y-95379814D01*
X109461808Y-95115413D01*
X108506000Y-94159605D01*
X107550192Y-95115413D01*
X103598999Y-95115413D01*
X103598999Y-94042595D01*
X106864282Y-94042595D01*
X106908039Y-94361675D01*
X107013205Y-94666088D01*
X107106186Y-94840044D01*
X107370587Y-94935808D01*
X108326395Y-93980000D01*
X108685605Y-93980000D01*
X109641413Y-94935808D01*
X109905814Y-94840044D01*
X110006662Y-94632739D01*
X110057082Y-94754463D01*
X110236013Y-95022252D01*
X110463748Y-95249987D01*
X110731537Y-95428918D01*
X111029088Y-95552168D01*
X111344967Y-95615000D01*
X111667033Y-95615000D01*
X111982912Y-95552168D01*
X112280463Y-95428918D01*
X112548252Y-95249987D01*
X112775987Y-95022252D01*
X112954918Y-94754463D01*
X113006000Y-94631140D01*
X113057082Y-94754463D01*
X113236013Y-95022252D01*
X113463748Y-95249987D01*
X113731537Y-95428918D01*
X114029088Y-95552168D01*
X114344967Y-95615000D01*
X114667033Y-95615000D01*
X114982912Y-95552168D01*
X115280463Y-95428918D01*
X115548252Y-95249987D01*
X115775987Y-95022252D01*
X115954918Y-94754463D01*
X116078168Y-94456912D01*
X116141000Y-94141033D01*
X116141000Y-93818967D01*
X116078168Y-93503088D01*
X115954918Y-93205537D01*
X115775987Y-92937748D01*
X115548252Y-92710013D01*
X115280463Y-92531082D01*
X114982912Y-92407832D01*
X114667033Y-92345000D01*
X114344967Y-92345000D01*
X114029088Y-92407832D01*
X113731537Y-92531082D01*
X113463748Y-92710013D01*
X113236013Y-92937748D01*
X113057082Y-93205537D01*
X113006000Y-93328860D01*
X112954918Y-93205537D01*
X112775987Y-92937748D01*
X112548252Y-92710013D01*
X112280463Y-92531082D01*
X111982912Y-92407832D01*
X111667033Y-92345000D01*
X111344967Y-92345000D01*
X111029088Y-92407832D01*
X110731537Y-92531082D01*
X110463748Y-92710013D01*
X110236013Y-92937748D01*
X110057082Y-93205537D01*
X110008654Y-93322451D01*
X109998795Y-93293912D01*
X109905814Y-93119956D01*
X109641413Y-93024192D01*
X108685605Y-93980000D01*
X108326395Y-93980000D01*
X107370587Y-93024192D01*
X107106186Y-93119956D01*
X106965296Y-93409571D01*
X106883616Y-93721108D01*
X106864282Y-94042595D01*
X103598999Y-94042595D01*
X103598999Y-92844587D01*
X107550192Y-92844587D01*
X108506000Y-93800395D01*
X109461808Y-92844587D01*
X109366044Y-92580186D01*
X109076429Y-92439296D01*
X108764892Y-92357616D01*
X108443405Y-92338282D01*
X108124325Y-92382039D01*
X107819912Y-92487205D01*
X107645956Y-92580186D01*
X107550192Y-92844587D01*
X103598999Y-92844587D01*
X103598999Y-62752579D01*
X105009050Y-61342529D01*
X105042817Y-61314817D01*
X105153411Y-61180059D01*
X105235589Y-61026313D01*
X105286195Y-60859490D01*
X105299000Y-60729477D01*
X105299000Y-60729467D01*
X105303281Y-60686001D01*
X105299000Y-60642535D01*
X105299000Y-59898072D01*
X105664000Y-59898072D01*
X105788482Y-59885812D01*
X105875928Y-59859286D01*
X105875928Y-61160000D01*
X105888188Y-61284482D01*
X105924498Y-61404180D01*
X105983463Y-61514494D01*
X106062815Y-61611185D01*
X106159506Y-61690537D01*
X106269820Y-61749502D01*
X106389518Y-61785812D01*
X106514000Y-61798072D01*
X107514000Y-61798072D01*
X107638482Y-61785812D01*
X107758180Y-61749502D01*
X107868494Y-61690537D01*
X107965185Y-61611185D01*
X108014000Y-61551704D01*
X108062815Y-61611185D01*
X108159506Y-61690537D01*
X108269820Y-61749502D01*
X108389518Y-61785812D01*
X108514000Y-61798072D01*
X109514000Y-61798072D01*
X109638482Y-61785812D01*
X109758180Y-61749502D01*
X109868494Y-61690537D01*
X109965185Y-61611185D01*
X110014000Y-61551704D01*
X110062815Y-61611185D01*
X110159506Y-61690537D01*
X110269820Y-61749502D01*
X110389518Y-61785812D01*
X110514000Y-61798072D01*
X111514000Y-61798072D01*
X111638482Y-61785812D01*
X111758180Y-61749502D01*
X111868494Y-61690537D01*
X111965185Y-61611185D01*
X112014000Y-61551704D01*
X112062815Y-61611185D01*
X112159506Y-61690537D01*
X112269820Y-61749502D01*
X112389518Y-61785812D01*
X112514000Y-61798072D01*
X113514000Y-61798072D01*
X113638482Y-61785812D01*
X113758180Y-61749502D01*
X113868494Y-61690537D01*
X113965185Y-61611185D01*
X114014000Y-61551704D01*
X114062815Y-61611185D01*
X114159506Y-61690537D01*
X114269820Y-61749502D01*
X114389518Y-61785812D01*
X114514000Y-61798072D01*
X115514000Y-61798072D01*
X115638482Y-61785812D01*
X115758180Y-61749502D01*
X115868494Y-61690537D01*
X115965185Y-61611185D01*
X116014000Y-61551704D01*
X116062815Y-61611185D01*
X116159506Y-61690537D01*
X116269820Y-61749502D01*
X116389518Y-61785812D01*
X116514000Y-61798072D01*
X117514000Y-61798072D01*
X117638482Y-61785812D01*
X117758180Y-61749502D01*
X117868494Y-61690537D01*
X117965185Y-61611185D01*
X118044537Y-61514494D01*
X118103502Y-61404180D01*
X118139812Y-61284482D01*
X118152072Y-61160000D01*
X118152072Y-59859286D01*
X118239518Y-59885812D01*
X118364000Y-59898072D01*
X119328250Y-59895000D01*
X119487000Y-59736250D01*
X119487000Y-58887000D01*
X117938603Y-58887000D01*
X117868494Y-58829463D01*
X117758180Y-58770498D01*
X117638482Y-58734188D01*
X117514000Y-58721928D01*
X116514000Y-58721928D01*
X116389518Y-58734188D01*
X116269820Y-58770498D01*
X116159506Y-58829463D01*
X116062815Y-58908815D01*
X116014000Y-58968296D01*
X115965185Y-58908815D01*
X115868494Y-58829463D01*
X115758180Y-58770498D01*
X115638482Y-58734188D01*
X115514000Y-58721928D01*
X114514000Y-58721928D01*
X114389518Y-58734188D01*
X114269820Y-58770498D01*
X114159506Y-58829463D01*
X114062815Y-58908815D01*
X114014000Y-58968296D01*
X113965185Y-58908815D01*
X113868494Y-58829463D01*
X113758180Y-58770498D01*
X113638482Y-58734188D01*
X113536000Y-58724095D01*
X113536000Y-30383046D01*
X113630494Y-30332537D01*
X113727185Y-30253185D01*
X113806537Y-30156494D01*
X113865502Y-30046180D01*
X113901812Y-29926482D01*
X113914072Y-29802000D01*
X114137928Y-29802000D01*
X114150188Y-29926482D01*
X114186498Y-30046180D01*
X114245463Y-30156494D01*
X114324815Y-30253185D01*
X114421506Y-30332537D01*
X114531820Y-30391502D01*
X114651518Y-30427812D01*
X114776000Y-30440072D01*
X114990250Y-30437000D01*
X115149000Y-30278250D01*
X115149000Y-28829000D01*
X115403000Y-28829000D01*
X115403000Y-30278250D01*
X115561750Y-30437000D01*
X115776000Y-30440072D01*
X115900482Y-30427812D01*
X116020180Y-30391502D01*
X116130494Y-30332537D01*
X116227185Y-30253185D01*
X116306537Y-30156494D01*
X116365502Y-30046180D01*
X116401812Y-29926482D01*
X116414072Y-29802000D01*
X116411000Y-28987750D01*
X116252250Y-28829000D01*
X115403000Y-28829000D01*
X115149000Y-28829000D01*
X114299750Y-28829000D01*
X114141000Y-28987750D01*
X114137928Y-29802000D01*
X113914072Y-29802000D01*
X113914072Y-27602000D01*
X114137928Y-27602000D01*
X114141000Y-28416250D01*
X114299750Y-28575000D01*
X115149000Y-28575000D01*
X115149000Y-27125750D01*
X115403000Y-27125750D01*
X115403000Y-28575000D01*
X116252250Y-28575000D01*
X116411000Y-28416250D01*
X116411097Y-28390305D01*
X116937313Y-28390305D01*
X116937313Y-29013695D01*
X117058930Y-29625105D01*
X117297490Y-30201042D01*
X117643827Y-30719371D01*
X118084629Y-31160173D01*
X118602958Y-31506510D01*
X119178895Y-31745070D01*
X119790305Y-31866687D01*
X120413695Y-31866687D01*
X121025105Y-31745070D01*
X121601042Y-31506510D01*
X122119371Y-31160173D01*
X122560173Y-30719371D01*
X122906510Y-30201042D01*
X123145070Y-29625105D01*
X123266687Y-29013695D01*
X123266687Y-28390305D01*
X123145070Y-27778895D01*
X122906510Y-27202958D01*
X122560173Y-26684629D01*
X122119371Y-26243827D01*
X121601042Y-25897490D01*
X121025105Y-25658930D01*
X120413695Y-25537313D01*
X119790305Y-25537313D01*
X119178895Y-25658930D01*
X118602958Y-25897490D01*
X118084629Y-26243827D01*
X117643827Y-26684629D01*
X117297490Y-27202958D01*
X117058930Y-27778895D01*
X116937313Y-28390305D01*
X116411097Y-28390305D01*
X116414072Y-27602000D01*
X116401812Y-27477518D01*
X116365502Y-27357820D01*
X116306537Y-27247506D01*
X116227185Y-27150815D01*
X116130494Y-27071463D01*
X116020180Y-27012498D01*
X115900482Y-26976188D01*
X115776000Y-26963928D01*
X115561750Y-26967000D01*
X115403000Y-27125750D01*
X115149000Y-27125750D01*
X114990250Y-26967000D01*
X114776000Y-26963928D01*
X114651518Y-26976188D01*
X114531820Y-27012498D01*
X114421506Y-27071463D01*
X114324815Y-27150815D01*
X114245463Y-27247506D01*
X114186498Y-27357820D01*
X114150188Y-27477518D01*
X114137928Y-27602000D01*
X113914072Y-27602000D01*
X113901812Y-27477518D01*
X113865502Y-27357820D01*
X113806537Y-27247506D01*
X113727185Y-27150815D01*
X113630494Y-27071463D01*
X113520180Y-27012498D01*
X113400482Y-26976188D01*
X113276000Y-26963928D01*
X112276000Y-26963928D01*
X112151518Y-26976188D01*
X112031820Y-27012498D01*
X111921506Y-27071463D01*
X111824815Y-27150815D01*
X111745463Y-27247506D01*
X111686498Y-27357820D01*
X111650188Y-27477518D01*
X111637928Y-27602000D01*
X111637928Y-29802000D01*
X111650188Y-29926482D01*
X111686498Y-30046180D01*
X111745463Y-30156494D01*
X111824815Y-30253185D01*
X111921506Y-30332537D01*
X112016000Y-30383046D01*
X112016001Y-58965858D01*
X112014000Y-58968296D01*
X111965185Y-58908815D01*
X111868494Y-58829463D01*
X111758180Y-58770498D01*
X111638482Y-58734188D01*
X111514000Y-58721928D01*
X110514000Y-58721928D01*
X110389518Y-58734188D01*
X110269820Y-58770498D01*
X110159506Y-58829463D01*
X110062815Y-58908815D01*
X110014000Y-58968296D01*
X109965185Y-58908815D01*
X109868494Y-58829463D01*
X109758180Y-58770498D01*
X109638482Y-58734188D01*
X109514000Y-58721928D01*
X108514000Y-58721928D01*
X108389518Y-58734188D01*
X108269820Y-58770498D01*
X108159506Y-58829463D01*
X108062815Y-58908815D01*
X108014000Y-58968296D01*
X107965185Y-58908815D01*
X107868494Y-58829463D01*
X107758180Y-58770498D01*
X107638482Y-58734188D01*
X107514000Y-58721928D01*
X106514000Y-58721928D01*
X106389518Y-58734188D01*
X106302072Y-58760714D01*
X106302072Y-58260000D01*
X106289812Y-58135518D01*
X106253502Y-58015820D01*
X106194537Y-57905506D01*
X106115185Y-57808815D01*
X106055704Y-57760000D01*
X106115185Y-57711185D01*
X106194537Y-57614494D01*
X106253502Y-57504180D01*
X106289812Y-57384482D01*
X106302072Y-57260000D01*
X106302072Y-56260000D01*
X106289812Y-56135518D01*
X106253502Y-56015820D01*
X106194537Y-55905506D01*
X106115185Y-55808815D01*
X106055704Y-55760000D01*
X106115185Y-55711185D01*
X106194537Y-55614494D01*
X106253502Y-55504180D01*
X106289812Y-55384482D01*
X106302072Y-55260000D01*
X106302072Y-54260000D01*
X106289812Y-54135518D01*
X106253502Y-54015820D01*
X106194537Y-53905506D01*
X106115185Y-53808815D01*
X106055704Y-53760000D01*
X106115185Y-53711185D01*
X106194537Y-53614494D01*
X106253502Y-53504180D01*
X106289812Y-53384482D01*
X106302072Y-53260000D01*
X106302072Y-52260000D01*
X106289812Y-52135518D01*
X106253502Y-52015820D01*
X106194537Y-51905506D01*
X106115185Y-51808815D01*
X106055704Y-51760000D01*
X106115185Y-51711185D01*
X106194537Y-51614494D01*
X106253502Y-51504180D01*
X106289812Y-51384482D01*
X106302072Y-51260000D01*
X106302072Y-50260000D01*
X106289812Y-50135518D01*
X106253502Y-50015820D01*
X106194537Y-49905506D01*
X106115185Y-49808815D01*
X106055704Y-49760000D01*
X106115185Y-49711185D01*
X106194537Y-49614494D01*
X106253502Y-49504180D01*
X106289812Y-49384482D01*
X106302072Y-49260000D01*
X106302072Y-48260000D01*
X106289812Y-48135518D01*
X106253502Y-48015820D01*
X106194537Y-47905506D01*
X106115185Y-47808815D01*
X106055704Y-47760000D01*
X106115185Y-47711185D01*
X106194537Y-47614494D01*
X106253502Y-47504180D01*
X106289812Y-47384482D01*
X106302072Y-47260000D01*
X106302072Y-46260000D01*
X106289812Y-46135518D01*
X106253502Y-46015820D01*
X106194537Y-45905506D01*
X106115185Y-45808815D01*
X106055704Y-45760000D01*
X106115185Y-45711185D01*
X106194537Y-45614494D01*
X106253502Y-45504180D01*
X106289812Y-45384482D01*
X106302072Y-45260000D01*
X106302072Y-44260000D01*
X106289812Y-44135518D01*
X106253502Y-44015820D01*
X106194537Y-43905506D01*
X106115185Y-43808815D01*
X106018494Y-43729463D01*
X105908180Y-43670498D01*
X105788482Y-43634188D01*
X105664000Y-43621928D01*
X103164000Y-43621928D01*
X103039518Y-43634188D01*
X102919820Y-43670498D01*
X102809506Y-43729463D01*
X102712815Y-43808815D01*
X102633463Y-43905506D01*
X102574498Y-44015820D01*
X102538188Y-44135518D01*
X102525928Y-44260000D01*
X102525928Y-45260000D01*
X102538188Y-45384482D01*
X102574498Y-45504180D01*
X102633463Y-45614494D01*
X102712815Y-45711185D01*
X102772296Y-45760000D01*
X102712815Y-45808815D01*
X102633463Y-45905506D01*
X102574498Y-46015820D01*
X102538188Y-46135518D01*
X102525928Y-46260000D01*
X102525928Y-47260000D01*
X102538188Y-47384482D01*
X102574498Y-47504180D01*
X102633463Y-47614494D01*
X102712815Y-47711185D01*
X102772296Y-47760000D01*
X102712815Y-47808815D01*
X102633463Y-47905506D01*
X102574498Y-48015820D01*
X102538188Y-48135518D01*
X102525928Y-48260000D01*
X102525928Y-49260000D01*
X102538188Y-49384482D01*
X102574498Y-49504180D01*
X102633463Y-49614494D01*
X102712815Y-49711185D01*
X102772296Y-49760000D01*
X102712815Y-49808815D01*
X102633463Y-49905506D01*
X102574498Y-50015820D01*
X102538188Y-50135518D01*
X102525928Y-50260000D01*
X102525928Y-51260000D01*
X102538188Y-51384482D01*
X102574498Y-51504180D01*
X102633463Y-51614494D01*
X102712815Y-51711185D01*
X102772296Y-51760000D01*
X102712815Y-51808815D01*
X102633463Y-51905506D01*
X102574498Y-52015820D01*
X102538188Y-52135518D01*
X102525928Y-52260000D01*
X102525928Y-53260000D01*
X102538188Y-53384482D01*
X102574498Y-53504180D01*
X102633463Y-53614494D01*
X102712815Y-53711185D01*
X102772296Y-53760000D01*
X102712815Y-53808815D01*
X102633463Y-53905506D01*
X102574498Y-54015820D01*
X102538188Y-54135518D01*
X102525928Y-54260000D01*
X102525928Y-55260000D01*
X102538188Y-55384482D01*
X102574498Y-55504180D01*
X102633463Y-55614494D01*
X102712815Y-55711185D01*
X102772296Y-55760000D01*
X102712815Y-55808815D01*
X102633463Y-55905506D01*
X102574498Y-56015820D01*
X102538188Y-56135518D01*
X102525928Y-56260000D01*
X102525928Y-57260000D01*
X102538188Y-57384482D01*
X102574498Y-57504180D01*
X102633463Y-57614494D01*
X102712815Y-57711185D01*
X102772296Y-57760000D01*
X102712815Y-57808815D01*
X102633463Y-57905506D01*
X102574498Y-58015820D01*
X102538188Y-58135518D01*
X102525928Y-58260000D01*
X102525928Y-59260000D01*
X102538188Y-59384482D01*
X102574498Y-59504180D01*
X102633463Y-59614494D01*
X102712815Y-59711185D01*
X102809506Y-59790537D01*
X102919820Y-59849502D01*
X103039518Y-59885812D01*
X103164000Y-59898072D01*
X103529000Y-59898072D01*
X103529000Y-60319421D01*
X102118950Y-61729472D01*
X102085183Y-61757184D01*
X102057470Y-61790952D01*
X102057467Y-61790955D01*
X101974589Y-61891942D01*
X101892411Y-62045688D01*
X101841804Y-62212511D01*
X101824718Y-62386001D01*
X99660000Y-62386001D01*
X99660000Y-28644305D01*
X99665313Y-28644305D01*
X99665313Y-29267695D01*
X99786930Y-29879105D01*
X100025490Y-30455042D01*
X100371827Y-30973371D01*
X100812629Y-31414173D01*
X101330958Y-31760510D01*
X101906895Y-31999070D01*
X102518305Y-32120687D01*
X103141695Y-32120687D01*
X103753105Y-31999070D01*
X104329042Y-31760510D01*
X104847371Y-31414173D01*
X105288173Y-30973371D01*
X105634510Y-30455042D01*
X105873070Y-29879105D01*
X105994687Y-29267695D01*
X105994687Y-28644305D01*
X105873070Y-28032895D01*
X105694589Y-27602000D01*
X109107928Y-27602000D01*
X109107928Y-29802000D01*
X109120188Y-29926482D01*
X109156498Y-30046180D01*
X109215463Y-30156494D01*
X109294815Y-30253185D01*
X109391506Y-30332537D01*
X109501820Y-30391502D01*
X109621518Y-30427812D01*
X109746000Y-30440072D01*
X110746000Y-30440072D01*
X110870482Y-30427812D01*
X110990180Y-30391502D01*
X111100494Y-30332537D01*
X111197185Y-30253185D01*
X111276537Y-30156494D01*
X111335502Y-30046180D01*
X111371812Y-29926482D01*
X111384072Y-29802000D01*
X111384072Y-27602000D01*
X111371812Y-27477518D01*
X111335502Y-27357820D01*
X111276537Y-27247506D01*
X111197185Y-27150815D01*
X111100494Y-27071463D01*
X110990180Y-27012498D01*
X110870482Y-26976188D01*
X110746000Y-26963928D01*
X109746000Y-26963928D01*
X109621518Y-26976188D01*
X109501820Y-27012498D01*
X109391506Y-27071463D01*
X109294815Y-27150815D01*
X109215463Y-27247506D01*
X109156498Y-27357820D01*
X109120188Y-27477518D01*
X109107928Y-27602000D01*
X105694589Y-27602000D01*
X105634510Y-27456958D01*
X105288173Y-26938629D01*
X104847371Y-26497827D01*
X104329042Y-26151490D01*
X103753105Y-25912930D01*
X103141695Y-25791313D01*
X102518305Y-25791313D01*
X101906895Y-25912930D01*
X101330958Y-26151490D01*
X100812629Y-26497827D01*
X100371827Y-26938629D01*
X100025490Y-27456958D01*
X99786930Y-28032895D01*
X99665313Y-28644305D01*
X99660000Y-28644305D01*
X99660000Y-22660000D01*
X123340001Y-22660000D01*
X123340001Y-45911199D01*
G37*
X123340001Y-45911199D02*
X121677804Y-44249003D01*
X121654001Y-44219999D01*
X121538276Y-44125026D01*
X121476634Y-44092077D01*
X121453502Y-44015820D01*
X121394537Y-43905506D01*
X121315185Y-43808815D01*
X121218494Y-43729463D01*
X121108180Y-43670498D01*
X120988482Y-43634188D01*
X120864000Y-43621928D01*
X118364000Y-43621928D01*
X118239518Y-43634188D01*
X118119820Y-43670498D01*
X118009506Y-43729463D01*
X117912815Y-43808815D01*
X117833463Y-43905506D01*
X117774498Y-44015820D01*
X117738188Y-44135518D01*
X117725928Y-44260000D01*
X117725928Y-45260000D01*
X117738188Y-45384482D01*
X117774498Y-45504180D01*
X117833463Y-45614494D01*
X117912815Y-45711185D01*
X117972296Y-45760000D01*
X117912815Y-45808815D01*
X117833463Y-45905506D01*
X117774498Y-46015820D01*
X117738188Y-46135518D01*
X117725928Y-46260000D01*
X117725928Y-47260000D01*
X117738188Y-47384482D01*
X117774498Y-47504180D01*
X117833463Y-47614494D01*
X117912815Y-47711185D01*
X117972296Y-47760000D01*
X117912815Y-47808815D01*
X117833463Y-47905506D01*
X117774498Y-48015820D01*
X117738188Y-48135518D01*
X117725928Y-48260000D01*
X117725928Y-49260000D01*
X117738188Y-49384482D01*
X117774498Y-49504180D01*
X117833463Y-49614494D01*
X117912815Y-49711185D01*
X117972296Y-49760000D01*
X117912815Y-49808815D01*
X117833463Y-49905506D01*
X117774498Y-50015820D01*
X117738188Y-50135518D01*
X117725928Y-50260000D01*
X117725928Y-51260000D01*
X117738188Y-51384482D01*
X117774498Y-51504180D01*
X117833463Y-51614494D01*
X117912815Y-51711185D01*
X117972296Y-51760000D01*
X117912815Y-51808815D01*
X117833463Y-51905506D01*
X117774498Y-52015820D01*
X117738188Y-52135518D01*
X117725928Y-52260000D01*
X117725928Y-53260000D01*
X117738188Y-53384482D01*
X117774498Y-53504180D01*
X117833463Y-53614494D01*
X117912815Y-53711185D01*
X117972296Y-53760000D01*
X117912815Y-53808815D01*
X117833463Y-53905506D01*
X117774498Y-54015820D01*
X117738188Y-54135518D01*
X117725928Y-54260000D01*
X117725928Y-55260000D01*
X117738188Y-55384482D01*
X117774498Y-55504180D01*
X117833463Y-55614494D01*
X117912815Y-55711185D01*
X117972296Y-55760000D01*
X117912815Y-55808815D01*
X117833463Y-55905506D01*
X117774498Y-56015820D01*
X117738188Y-56135518D01*
X117725928Y-56260000D01*
X117725928Y-57260000D01*
X117738188Y-57384482D01*
X117774498Y-57504180D01*
X117833463Y-57614494D01*
X117912815Y-57711185D01*
X117972296Y-57760000D01*
X117912815Y-57808815D01*
X117833463Y-57905506D01*
X117774498Y-58015820D01*
X117738188Y-58135518D01*
X117725928Y-58260000D01*
X117729000Y-58474250D01*
X117887750Y-58633000D01*
X119487000Y-58633000D01*
X119487000Y-58613000D01*
X119741000Y-58613000D01*
X119741000Y-58633000D01*
X119761000Y-58633000D01*
X119761000Y-58887000D01*
X119741000Y-58887000D01*
X119741000Y-59736250D01*
X119899750Y-59895000D01*
X120864000Y-59898072D01*
X120906000Y-59893935D01*
X120906001Y-93919197D01*
X118049199Y-96776000D01*
X113212786Y-96776000D01*
X113103988Y-96742997D01*
X112992335Y-96732000D01*
X112992324Y-96732000D01*
X112955002Y-96728324D01*
X112917680Y-96732000D01*
X112566072Y-96732000D01*
X112566072Y-96692000D01*
X112553812Y-96567518D01*
X112517502Y-96447820D01*
X112458537Y-96337506D01*
X112379185Y-96240815D01*
X112282494Y-96161463D01*
X112172180Y-96102498D01*
X112052482Y-96066188D01*
X111928000Y-96053928D01*
X110528000Y-96053928D01*
X110403518Y-96066188D01*
X110283820Y-96102498D01*
X110173506Y-96161463D01*
X110076815Y-96240815D01*
X109997463Y-96337506D01*
X109938498Y-96447820D01*
X109902188Y-96567518D01*
X109889928Y-96692000D01*
X109889928Y-98292000D01*
X109902188Y-98416482D01*
X109938498Y-98536180D01*
X109997463Y-98646494D01*
X110076815Y-98743185D01*
X110173506Y-98822537D01*
X110283820Y-98881502D01*
X110403518Y-98917812D01*
X110528000Y-98930072D01*
X111928000Y-98930072D01*
X112052482Y-98917812D01*
X112172180Y-98881502D01*
X112282494Y-98822537D01*
X112379185Y-98743185D01*
X112458537Y-98646494D01*
X112517502Y-98536180D01*
X112553812Y-98416482D01*
X112566072Y-98292000D01*
X112566072Y-98252000D01*
X112741218Y-98252000D01*
X112850016Y-98285003D01*
X112961669Y-98296000D01*
X112961679Y-98296000D01*
X112999001Y-98299676D01*
X113036324Y-98296000D01*
X118326678Y-98296000D01*
X118364000Y-98299676D01*
X118401322Y-98296000D01*
X118401333Y-98296000D01*
X118512986Y-98285003D01*
X118597976Y-98259222D01*
X112925199Y-103932000D01*
X112566072Y-103932000D01*
X112566072Y-103892000D01*
X112553812Y-103767518D01*
X112517502Y-103647820D01*
X112458537Y-103537506D01*
X112379185Y-103440815D01*
X112282494Y-103361463D01*
X112172180Y-103302498D01*
X112052482Y-103266188D01*
X111928000Y-103253928D01*
X110528000Y-103253928D01*
X110403518Y-103266188D01*
X110283820Y-103302498D01*
X110173506Y-103361463D01*
X110076815Y-103440815D01*
X109997463Y-103537506D01*
X109938498Y-103647820D01*
X109902188Y-103767518D01*
X109889928Y-103892000D01*
X109889928Y-105492000D01*
X109902188Y-105616482D01*
X109938498Y-105736180D01*
X109997463Y-105846494D01*
X110076815Y-105943185D01*
X110173506Y-106022537D01*
X110283820Y-106081502D01*
X110403518Y-106117812D01*
X110528000Y-106130072D01*
X111928000Y-106130072D01*
X112052482Y-106117812D01*
X112172180Y-106081502D01*
X112282494Y-106022537D01*
X112379185Y-105943185D01*
X112458537Y-105846494D01*
X112517502Y-105736180D01*
X112553812Y-105616482D01*
X112566072Y-105492000D01*
X112566072Y-105452000D01*
X113202678Y-105452000D01*
X113240000Y-105455676D01*
X113277322Y-105452000D01*
X113277333Y-105452000D01*
X113388986Y-105441003D01*
X113532247Y-105397546D01*
X113664276Y-105326974D01*
X113780001Y-105232001D01*
X113803804Y-105202997D01*
X121668000Y-97338802D01*
X121668000Y-136591197D01*
X119573199Y-138686000D01*
X115280105Y-138686000D01*
X115176012Y-138434698D01*
X114942363Y-138085017D01*
X114644983Y-137787637D01*
X114295302Y-137553988D01*
X113906756Y-137393047D01*
X113494279Y-137311000D01*
X113073721Y-137311000D01*
X112661244Y-137393047D01*
X112272698Y-137553988D01*
X111923017Y-137787637D01*
X111625637Y-138085017D01*
X111391988Y-138434698D01*
X111231047Y-138823244D01*
X111149000Y-139235721D01*
X111149000Y-139656279D01*
X111231047Y-140068756D01*
X111391988Y-140457302D01*
X111625637Y-140806983D01*
X111923017Y-141104363D01*
X112272698Y-141338012D01*
X112661244Y-141498953D01*
X113073721Y-141581000D01*
X113494279Y-141581000D01*
X113906756Y-141498953D01*
X114295302Y-141338012D01*
X114644983Y-141104363D01*
X114942363Y-140806983D01*
X115176012Y-140457302D01*
X115280105Y-140206000D01*
X119850678Y-140206000D01*
X119888000Y-140209676D01*
X119925322Y-140206000D01*
X119925333Y-140206000D01*
X120036986Y-140195003D01*
X120180247Y-140151546D01*
X120312276Y-140080974D01*
X120428001Y-139986001D01*
X120451804Y-139956997D01*
X122430000Y-137978802D01*
X122430000Y-138623197D01*
X117287199Y-143766000D01*
X115280105Y-143766000D01*
X115176012Y-143514698D01*
X114942363Y-143165017D01*
X114644983Y-142867637D01*
X114295302Y-142633988D01*
X113906756Y-142473047D01*
X113494279Y-142391000D01*
X113073721Y-142391000D01*
X112661244Y-142473047D01*
X112272698Y-142633988D01*
X111923017Y-142867637D01*
X111625637Y-143165017D01*
X111391988Y-143514698D01*
X111231047Y-143903244D01*
X111149000Y-144315721D01*
X111149000Y-144736279D01*
X111231047Y-145148756D01*
X111391988Y-145537302D01*
X111625637Y-145886983D01*
X111923017Y-146184363D01*
X112272698Y-146418012D01*
X112661244Y-146578953D01*
X113073721Y-146661000D01*
X113494279Y-146661000D01*
X113906756Y-146578953D01*
X114295302Y-146418012D01*
X114644983Y-146184363D01*
X114942363Y-145886983D01*
X115176012Y-145537302D01*
X115280105Y-145286000D01*
X117564678Y-145286000D01*
X117602000Y-145289676D01*
X117639322Y-145286000D01*
X117639333Y-145286000D01*
X117750986Y-145275003D01*
X117894247Y-145231546D01*
X118026276Y-145160974D01*
X118142001Y-145066001D01*
X118165804Y-145036997D01*
X123340000Y-139862803D01*
X123340000Y-197340000D01*
X99660000Y-197340000D01*
X99660000Y-184092305D01*
X100681313Y-184092305D01*
X100681313Y-184715695D01*
X100802930Y-185327105D01*
X101041490Y-185903042D01*
X101387827Y-186421371D01*
X101828629Y-186862173D01*
X102346958Y-187208510D01*
X102922895Y-187447070D01*
X103534305Y-187568687D01*
X104157695Y-187568687D01*
X104769105Y-187447070D01*
X105345042Y-187208510D01*
X105863371Y-186862173D01*
X106304173Y-186421371D01*
X106650510Y-185903042D01*
X106889070Y-185327105D01*
X107010687Y-184715695D01*
X107010687Y-184092305D01*
X106889070Y-183480895D01*
X106650510Y-182904958D01*
X106304173Y-182386629D01*
X105863371Y-181945827D01*
X105345042Y-181599490D01*
X104769105Y-181360930D01*
X104157695Y-181239313D01*
X103534305Y-181239313D01*
X102922895Y-181360930D01*
X102346958Y-181599490D01*
X101828629Y-181945827D01*
X101387827Y-182386629D01*
X101041490Y-182904958D01*
X100802930Y-183480895D01*
X100681313Y-184092305D01*
X99660000Y-184092305D01*
X99660000Y-176046000D01*
X103017928Y-176046000D01*
X103017928Y-179046000D01*
X103030188Y-179170482D01*
X103066498Y-179290180D01*
X103125463Y-179400494D01*
X103204815Y-179497185D01*
X103301506Y-179576537D01*
X103411820Y-179635502D01*
X103531518Y-179671812D01*
X103656000Y-179684072D01*
X106042493Y-179684072D01*
X106846953Y-180488532D01*
X106846958Y-180488536D01*
X108589001Y-182230580D01*
X108589000Y-188809672D01*
X108462698Y-188861988D01*
X108113017Y-189095637D01*
X107815637Y-189393017D01*
X107581988Y-189742698D01*
X107421047Y-190131244D01*
X107339000Y-190543721D01*
X107339000Y-190964279D01*
X107421047Y-191376756D01*
X107581988Y-191765302D01*
X107815637Y-192114983D01*
X108113017Y-192412363D01*
X108462698Y-192646012D01*
X108851244Y-192806953D01*
X109263721Y-192889000D01*
X109684279Y-192889000D01*
X110096756Y-192806953D01*
X110485302Y-192646012D01*
X110834983Y-192412363D01*
X110993346Y-192254000D01*
X112415928Y-192254000D01*
X112428188Y-192378482D01*
X112464498Y-192498180D01*
X112523463Y-192608494D01*
X112602815Y-192705185D01*
X112699506Y-192784537D01*
X112809820Y-192843502D01*
X112929518Y-192879812D01*
X113054000Y-192892072D01*
X114268250Y-192889000D01*
X114427000Y-192730250D01*
X114427000Y-190881000D01*
X114681000Y-190881000D01*
X114681000Y-192730250D01*
X114839750Y-192889000D01*
X116054000Y-192892072D01*
X116178482Y-192879812D01*
X116298180Y-192843502D01*
X116408494Y-192784537D01*
X116505185Y-192705185D01*
X116584537Y-192608494D01*
X116643502Y-192498180D01*
X116679812Y-192378482D01*
X116692072Y-192254000D01*
X116689000Y-191039750D01*
X116530250Y-190881000D01*
X114681000Y-190881000D01*
X114427000Y-190881000D01*
X112577750Y-190881000D01*
X112419000Y-191039750D01*
X112415928Y-192254000D01*
X110993346Y-192254000D01*
X111132363Y-192114983D01*
X111366012Y-191765302D01*
X111526953Y-191376756D01*
X111609000Y-190964279D01*
X111609000Y-190543721D01*
X111526953Y-190131244D01*
X111366012Y-189742698D01*
X111132363Y-189393017D01*
X110993346Y-189254000D01*
X112415928Y-189254000D01*
X112419000Y-190468250D01*
X112577750Y-190627000D01*
X114427000Y-190627000D01*
X114427000Y-188777750D01*
X114681000Y-188777750D01*
X114681000Y-190627000D01*
X116530250Y-190627000D01*
X116689000Y-190468250D01*
X116692072Y-189254000D01*
X116679812Y-189129518D01*
X116643502Y-189009820D01*
X116584537Y-188899506D01*
X116505185Y-188802815D01*
X116408494Y-188723463D01*
X116298180Y-188664498D01*
X116178482Y-188628188D01*
X116054000Y-188615928D01*
X114839750Y-188619000D01*
X114681000Y-188777750D01*
X114427000Y-188777750D01*
X114268250Y-188619000D01*
X113054000Y-188615928D01*
X112929518Y-188628188D01*
X112809820Y-188664498D01*
X112699506Y-188723463D01*
X112602815Y-188802815D01*
X112523463Y-188899506D01*
X112464498Y-189009820D01*
X112428188Y-189129518D01*
X112415928Y-189254000D01*
X110993346Y-189254000D01*
X110834983Y-189095637D01*
X110485302Y-188861988D01*
X110359000Y-188809672D01*
X110359000Y-183838305D01*
X115199313Y-183838305D01*
X115199313Y-184461695D01*
X115320930Y-185073105D01*
X115559490Y-185649042D01*
X115905827Y-186167371D01*
X116346629Y-186608173D01*
X116864958Y-186954510D01*
X117440895Y-187193070D01*
X118052305Y-187314687D01*
X118675695Y-187314687D01*
X119287105Y-187193070D01*
X119863042Y-186954510D01*
X120381371Y-186608173D01*
X120822173Y-186167371D01*
X121168510Y-185649042D01*
X121407070Y-185073105D01*
X121528687Y-184461695D01*
X121528687Y-183838305D01*
X121407070Y-183226895D01*
X121168510Y-182650958D01*
X120822173Y-182132629D01*
X120381371Y-181691827D01*
X119863042Y-181345490D01*
X119287105Y-181106930D01*
X118675695Y-180985313D01*
X118052305Y-180985313D01*
X117440895Y-181106930D01*
X116864958Y-181345490D01*
X116346629Y-181691827D01*
X115905827Y-182132629D01*
X115559490Y-182650958D01*
X115320930Y-183226895D01*
X115199313Y-183838305D01*
X110359000Y-183838305D01*
X110359000Y-181907469D01*
X110363281Y-181864000D01*
X110359000Y-181820531D01*
X110359000Y-181820523D01*
X110346195Y-181690510D01*
X110295589Y-181523687D01*
X110213411Y-181369941D01*
X110102817Y-181235183D01*
X110069049Y-181207470D01*
X108098536Y-179236958D01*
X108098532Y-179236953D01*
X107899232Y-179037653D01*
X108923952Y-179037653D01*
X109079962Y-179353214D01*
X109454745Y-179544020D01*
X109859551Y-179658044D01*
X110278824Y-179690902D01*
X110696451Y-179641334D01*
X111096383Y-179511243D01*
X111392038Y-179353214D01*
X111548048Y-179037653D01*
X114003952Y-179037653D01*
X114159962Y-179353214D01*
X114534745Y-179544020D01*
X114939551Y-179658044D01*
X115358824Y-179690902D01*
X115776451Y-179641334D01*
X116176383Y-179511243D01*
X116472038Y-179353214D01*
X116628048Y-179037653D01*
X115316000Y-177725605D01*
X114003952Y-179037653D01*
X111548048Y-179037653D01*
X110236000Y-177725605D01*
X108923952Y-179037653D01*
X107899232Y-179037653D01*
X107294072Y-178432493D01*
X107294072Y-177588824D01*
X108091098Y-177588824D01*
X108140666Y-178006451D01*
X108270757Y-178406383D01*
X108428786Y-178702038D01*
X108744347Y-178858048D01*
X110056395Y-177546000D01*
X110415605Y-177546000D01*
X111727653Y-178858048D01*
X112043214Y-178702038D01*
X112234020Y-178327255D01*
X112348044Y-177922449D01*
X112374189Y-177588824D01*
X113171098Y-177588824D01*
X113220666Y-178006451D01*
X113350757Y-178406383D01*
X113508786Y-178702038D01*
X113824347Y-178858048D01*
X115136395Y-177546000D01*
X115495605Y-177546000D01*
X116807653Y-178858048D01*
X117123214Y-178702038D01*
X117314020Y-178327255D01*
X117428044Y-177922449D01*
X117460902Y-177503176D01*
X117411334Y-177085549D01*
X117281243Y-176685617D01*
X117123214Y-176389962D01*
X116807653Y-176233952D01*
X115495605Y-177546000D01*
X115136395Y-177546000D01*
X113824347Y-176233952D01*
X113508786Y-176389962D01*
X113317980Y-176764745D01*
X113203956Y-177169551D01*
X113171098Y-177588824D01*
X112374189Y-177588824D01*
X112380902Y-177503176D01*
X112331334Y-177085549D01*
X112201243Y-176685617D01*
X112043214Y-176389962D01*
X111727653Y-176233952D01*
X110415605Y-177546000D01*
X110056395Y-177546000D01*
X108744347Y-176233952D01*
X108428786Y-176389962D01*
X108237980Y-176764745D01*
X108123956Y-177169551D01*
X108091098Y-177588824D01*
X107294072Y-177588824D01*
X107294072Y-176659506D01*
X107899231Y-176054347D01*
X108923952Y-176054347D01*
X110236000Y-177366395D01*
X111548048Y-176054347D01*
X114003952Y-176054347D01*
X115316000Y-177366395D01*
X116628048Y-176054347D01*
X116472038Y-175738786D01*
X116097255Y-175547980D01*
X115692449Y-175433956D01*
X115273176Y-175401098D01*
X114855549Y-175450666D01*
X114455617Y-175580757D01*
X114159962Y-175738786D01*
X114003952Y-176054347D01*
X111548048Y-176054347D01*
X111392038Y-175738786D01*
X111017255Y-175547980D01*
X110612449Y-175433956D01*
X110193176Y-175401098D01*
X109775549Y-175450666D01*
X109375617Y-175580757D01*
X109079962Y-175738786D01*
X108923952Y-176054347D01*
X107899231Y-176054347D01*
X111714579Y-172239000D01*
X116597928Y-172239000D01*
X116597928Y-172354000D01*
X116610188Y-172478482D01*
X116646498Y-172598180D01*
X116705463Y-172708494D01*
X116784815Y-172805185D01*
X116881506Y-172884537D01*
X116991820Y-172943502D01*
X117111518Y-172979812D01*
X117236000Y-172992072D01*
X119236000Y-172992072D01*
X119360482Y-172979812D01*
X119480180Y-172943502D01*
X119590494Y-172884537D01*
X119687185Y-172805185D01*
X119766537Y-172708494D01*
X119825502Y-172598180D01*
X119861812Y-172478482D01*
X119874072Y-172354000D01*
X119874072Y-170354000D01*
X119861812Y-170229518D01*
X119825502Y-170109820D01*
X119766537Y-169999506D01*
X119687185Y-169902815D01*
X119590494Y-169823463D01*
X119480180Y-169764498D01*
X119360482Y-169728188D01*
X119236000Y-169715928D01*
X117236000Y-169715928D01*
X117111518Y-169728188D01*
X116991820Y-169764498D01*
X116881506Y-169823463D01*
X116784815Y-169902815D01*
X116705463Y-169999506D01*
X116646498Y-170109820D01*
X116610188Y-170229518D01*
X116597928Y-170354000D01*
X116597928Y-170469000D01*
X111391465Y-170469000D01*
X111347999Y-170464719D01*
X111304533Y-170469000D01*
X111304523Y-170469000D01*
X111174510Y-170481805D01*
X111007687Y-170532411D01*
X110853941Y-170614589D01*
X110853939Y-170614590D01*
X110853940Y-170614590D01*
X110752953Y-170697468D01*
X110752951Y-170697470D01*
X110719183Y-170725183D01*
X110691470Y-170758951D01*
X106042494Y-175407928D01*
X103656000Y-175407928D01*
X103531518Y-175420188D01*
X103411820Y-175456498D01*
X103301506Y-175515463D01*
X103204815Y-175594815D01*
X103125463Y-175691506D01*
X103066498Y-175801820D01*
X103030188Y-175921518D01*
X103017928Y-176046000D01*
X99660000Y-176046000D01*
X99660000Y-172354000D01*
X100597928Y-172354000D01*
X100610188Y-172478482D01*
X100646498Y-172598180D01*
X100705463Y-172708494D01*
X100784815Y-172805185D01*
X100881506Y-172884537D01*
X100991820Y-172943502D01*
X101111518Y-172979812D01*
X101236000Y-172992072D01*
X101950250Y-172989000D01*
X102109000Y-172830250D01*
X102109000Y-171481000D01*
X102363000Y-171481000D01*
X102363000Y-172830250D01*
X102521750Y-172989000D01*
X103236000Y-172992072D01*
X103360482Y-172979812D01*
X103480180Y-172943502D01*
X103590494Y-172884537D01*
X103687185Y-172805185D01*
X103766537Y-172708494D01*
X103825502Y-172598180D01*
X103861812Y-172478482D01*
X103874072Y-172354000D01*
X103871000Y-171639750D01*
X103712250Y-171481000D01*
X102363000Y-171481000D01*
X102109000Y-171481000D01*
X100759750Y-171481000D01*
X100601000Y-171639750D01*
X100597928Y-172354000D01*
X99660000Y-172354000D01*
X99660000Y-170354000D01*
X100597928Y-170354000D01*
X100601000Y-171068250D01*
X100759750Y-171227000D01*
X102109000Y-171227000D01*
X102109000Y-169877750D01*
X102363000Y-169877750D01*
X102363000Y-171227000D01*
X103712250Y-171227000D01*
X103871000Y-171068250D01*
X103874072Y-170354000D01*
X103861812Y-170229518D01*
X103825502Y-170109820D01*
X103766537Y-169999506D01*
X103687185Y-169902815D01*
X103590494Y-169823463D01*
X103480180Y-169764498D01*
X103360482Y-169728188D01*
X103236000Y-169715928D01*
X102521750Y-169719000D01*
X102363000Y-169877750D01*
X102109000Y-169877750D01*
X101950250Y-169719000D01*
X101236000Y-169715928D01*
X101111518Y-169728188D01*
X100991820Y-169764498D01*
X100881506Y-169823463D01*
X100784815Y-169902815D01*
X100705463Y-169999506D01*
X100646498Y-170109820D01*
X100610188Y-170229518D01*
X100597928Y-170354000D01*
X99660000Y-170354000D01*
X99660000Y-160354000D01*
X100597928Y-160354000D01*
X100610188Y-160478482D01*
X100646498Y-160598180D01*
X100705463Y-160708494D01*
X100784815Y-160805185D01*
X100881506Y-160884537D01*
X100991820Y-160943502D01*
X101111518Y-160979812D01*
X101236000Y-160992072D01*
X101950250Y-160989000D01*
X102109000Y-160830250D01*
X102109000Y-159481000D01*
X102363000Y-159481000D01*
X102363000Y-160830250D01*
X102521750Y-160989000D01*
X103236000Y-160992072D01*
X103360482Y-160979812D01*
X103480180Y-160943502D01*
X103590494Y-160884537D01*
X103687185Y-160805185D01*
X103766537Y-160708494D01*
X103825502Y-160598180D01*
X103861812Y-160478482D01*
X103874072Y-160354000D01*
X103871000Y-159639750D01*
X103712250Y-159481000D01*
X102363000Y-159481000D01*
X102109000Y-159481000D01*
X100759750Y-159481000D01*
X100601000Y-159639750D01*
X100597928Y-160354000D01*
X99660000Y-160354000D01*
X99660000Y-158354000D01*
X100597928Y-158354000D01*
X100601000Y-159068250D01*
X100759750Y-159227000D01*
X102109000Y-159227000D01*
X102109000Y-157877750D01*
X102363000Y-157877750D01*
X102363000Y-159227000D01*
X103712250Y-159227000D01*
X103871000Y-159068250D01*
X103874072Y-158354000D01*
X103861812Y-158229518D01*
X103825502Y-158109820D01*
X103766537Y-157999506D01*
X103687185Y-157902815D01*
X103590494Y-157823463D01*
X103480180Y-157764498D01*
X103360482Y-157728188D01*
X103236000Y-157715928D01*
X102521750Y-157719000D01*
X102363000Y-157877750D01*
X102109000Y-157877750D01*
X101950250Y-157719000D01*
X101236000Y-157715928D01*
X101111518Y-157728188D01*
X100991820Y-157764498D01*
X100881506Y-157823463D01*
X100784815Y-157902815D01*
X100705463Y-157999506D01*
X100646498Y-158109820D01*
X100610188Y-158229518D01*
X100597928Y-158354000D01*
X99660000Y-158354000D01*
X99660000Y-155872967D01*
X108521000Y-155872967D01*
X108521000Y-156195033D01*
X108583832Y-156510912D01*
X108707082Y-156808463D01*
X108886013Y-157076252D01*
X109113748Y-157303987D01*
X109381537Y-157482918D01*
X109679088Y-157606168D01*
X109994967Y-157669000D01*
X110317033Y-157669000D01*
X110632912Y-157606168D01*
X110930463Y-157482918D01*
X111198252Y-157303987D01*
X111332826Y-157169413D01*
X111880192Y-157169413D01*
X111975956Y-157433814D01*
X112265571Y-157574704D01*
X112577108Y-157656384D01*
X112898595Y-157675718D01*
X113217675Y-157631961D01*
X113522088Y-157526795D01*
X113696044Y-157433814D01*
X113791808Y-157169413D01*
X112836000Y-156213605D01*
X111880192Y-157169413D01*
X111332826Y-157169413D01*
X111425987Y-157076252D01*
X111525999Y-156926574D01*
X111700587Y-156989808D01*
X112656395Y-156034000D01*
X113015605Y-156034000D01*
X113971413Y-156989808D01*
X114235814Y-156894044D01*
X114376704Y-156604429D01*
X114458384Y-156292892D01*
X114477718Y-155971405D01*
X114433961Y-155652325D01*
X114328795Y-155347912D01*
X114235814Y-155173956D01*
X113971413Y-155078192D01*
X113015605Y-156034000D01*
X112656395Y-156034000D01*
X112642253Y-156019858D01*
X112821858Y-155840253D01*
X112836000Y-155854395D01*
X113791808Y-154898587D01*
X113759360Y-154809000D01*
X114695422Y-154809000D01*
X117351000Y-157464579D01*
X117351000Y-157715928D01*
X117236000Y-157715928D01*
X117111518Y-157728188D01*
X116991820Y-157764498D01*
X116881506Y-157823463D01*
X116784815Y-157902815D01*
X116705463Y-157999506D01*
X116646498Y-158109820D01*
X116610188Y-158229518D01*
X116597928Y-158354000D01*
X116597928Y-160354000D01*
X116610188Y-160478482D01*
X116646498Y-160598180D01*
X116705463Y-160708494D01*
X116784815Y-160805185D01*
X116881506Y-160884537D01*
X116991820Y-160943502D01*
X117111518Y-160979812D01*
X117236000Y-160992072D01*
X119236000Y-160992072D01*
X119360482Y-160979812D01*
X119480180Y-160943502D01*
X119590494Y-160884537D01*
X119687185Y-160805185D01*
X119766537Y-160708494D01*
X119825502Y-160598180D01*
X119861812Y-160478482D01*
X119874072Y-160354000D01*
X119874072Y-158354000D01*
X119861812Y-158229518D01*
X119825502Y-158109820D01*
X119766537Y-157999506D01*
X119687185Y-157902815D01*
X119590494Y-157823463D01*
X119480180Y-157764498D01*
X119360482Y-157728188D01*
X119236000Y-157715928D01*
X119121000Y-157715928D01*
X119121000Y-157141469D01*
X119125281Y-157098000D01*
X119121000Y-157054531D01*
X119121000Y-157054523D01*
X119108195Y-156924510D01*
X119057589Y-156757687D01*
X118975411Y-156603941D01*
X118892532Y-156502953D01*
X118892530Y-156502951D01*
X118864817Y-156469183D01*
X118831050Y-156441471D01*
X115718534Y-153328956D01*
X115690817Y-153295183D01*
X115556059Y-153184589D01*
X115402313Y-153102411D01*
X115235490Y-153051805D01*
X115105477Y-153039000D01*
X115105469Y-153039000D01*
X115062000Y-153034719D01*
X115018531Y-153039000D01*
X112309469Y-153039000D01*
X112266000Y-153034719D01*
X112222531Y-153039000D01*
X112222523Y-153039000D01*
X112092510Y-153051805D01*
X111925686Y-153102411D01*
X111771941Y-153184589D01*
X111670953Y-153267468D01*
X111670951Y-153267470D01*
X111637183Y-153295183D01*
X111609470Y-153328951D01*
X110502525Y-154435897D01*
X110317033Y-154399000D01*
X109994967Y-154399000D01*
X109679088Y-154461832D01*
X109381537Y-154585082D01*
X109113748Y-154764013D01*
X108886013Y-154991748D01*
X108707082Y-155259537D01*
X108583832Y-155557088D01*
X108521000Y-155872967D01*
X99660000Y-155872967D01*
X99660000Y-151106000D01*
X111145928Y-151106000D01*
X111158188Y-151230482D01*
X111194498Y-151350180D01*
X111253463Y-151460494D01*
X111332815Y-151557185D01*
X111429506Y-151636537D01*
X111539820Y-151695502D01*
X111659518Y-151731812D01*
X111784000Y-151744072D01*
X112998250Y-151741000D01*
X113157000Y-151582250D01*
X113157000Y-149733000D01*
X113411000Y-149733000D01*
X113411000Y-151582250D01*
X113569750Y-151741000D01*
X114784000Y-151744072D01*
X114908482Y-151731812D01*
X115028180Y-151695502D01*
X115138494Y-151636537D01*
X115235185Y-151557185D01*
X115314537Y-151460494D01*
X115373502Y-151350180D01*
X115409812Y-151230482D01*
X115422072Y-151106000D01*
X115419000Y-149891750D01*
X115260250Y-149733000D01*
X113411000Y-149733000D01*
X113157000Y-149733000D01*
X111307750Y-149733000D01*
X111149000Y-149891750D01*
X111145928Y-151106000D01*
X99660000Y-151106000D01*
X99660000Y-148106000D01*
X111145928Y-148106000D01*
X111149000Y-149320250D01*
X111307750Y-149479000D01*
X113157000Y-149479000D01*
X113157000Y-147629750D01*
X113411000Y-147629750D01*
X113411000Y-149479000D01*
X115260250Y-149479000D01*
X115419000Y-149320250D01*
X115422072Y-148106000D01*
X115409812Y-147981518D01*
X115373502Y-147861820D01*
X115314537Y-147751506D01*
X115235185Y-147654815D01*
X115138494Y-147575463D01*
X115028180Y-147516498D01*
X114908482Y-147480188D01*
X114784000Y-147467928D01*
X113569750Y-147471000D01*
X113411000Y-147629750D01*
X113157000Y-147629750D01*
X112998250Y-147471000D01*
X111784000Y-147467928D01*
X111659518Y-147480188D01*
X111539820Y-147516498D01*
X111429506Y-147575463D01*
X111332815Y-147654815D01*
X111253463Y-147751506D01*
X111194498Y-147861820D01*
X111158188Y-147981518D01*
X111145928Y-148106000D01*
X99660000Y-148106000D01*
X99660000Y-62386001D01*
X101824718Y-62386001D01*
X101829000Y-62429480D01*
X101828999Y-113338530D01*
X101824718Y-113381999D01*
X101828999Y-113425468D01*
X101828999Y-113425475D01*
X101841804Y-113555488D01*
X101892410Y-113722311D01*
X101974588Y-113876057D01*
X102085182Y-114010816D01*
X102118955Y-114038533D01*
X115973421Y-127893000D01*
X115455465Y-127893000D01*
X115411999Y-127888719D01*
X115368533Y-127893000D01*
X115368523Y-127893000D01*
X115238510Y-127905805D01*
X115071687Y-127956411D01*
X114917941Y-128038589D01*
X114917939Y-128038590D01*
X114917940Y-128038590D01*
X114816953Y-128121468D01*
X114816951Y-128121470D01*
X114783183Y-128149183D01*
X114755470Y-128182951D01*
X110502525Y-132435897D01*
X110317033Y-132399000D01*
X109994967Y-132399000D01*
X109679088Y-132461832D01*
X109381537Y-132585082D01*
X109113748Y-132764013D01*
X108886013Y-132991748D01*
X108707082Y-133259537D01*
X108583832Y-133557088D01*
X108521000Y-133872967D01*
X108521000Y-134195033D01*
X108583832Y-134510912D01*
X108707082Y-134808463D01*
X108886013Y-135076252D01*
X109113748Y-135303987D01*
X109381537Y-135482918D01*
X109679088Y-135606168D01*
X109994967Y-135669000D01*
X110317033Y-135669000D01*
X110632912Y-135606168D01*
X110930463Y-135482918D01*
X111198252Y-135303987D01*
X111332826Y-135169413D01*
X111880192Y-135169413D01*
X111975956Y-135433814D01*
X112265571Y-135574704D01*
X112577108Y-135656384D01*
X112898595Y-135675718D01*
X113217675Y-135631961D01*
X113522088Y-135526795D01*
X113696044Y-135433814D01*
X113791808Y-135169413D01*
X112836000Y-134213605D01*
X111880192Y-135169413D01*
X111332826Y-135169413D01*
X111425987Y-135076252D01*
X111525999Y-134926574D01*
X111700587Y-134989808D01*
X112656395Y-134034000D01*
X113015605Y-134034000D01*
X113971413Y-134989808D01*
X114235814Y-134894044D01*
X114376704Y-134604429D01*
X114458384Y-134292892D01*
X114477718Y-133971405D01*
X114433961Y-133652325D01*
X114328795Y-133347912D01*
X114235814Y-133173956D01*
X113971413Y-133078192D01*
X113015605Y-134034000D01*
X112656395Y-134034000D01*
X112642253Y-134019858D01*
X112821858Y-133840253D01*
X112836000Y-133854395D01*
X113791808Y-132898587D01*
X113696044Y-132634186D01*
X113406429Y-132493296D01*
X113094892Y-132411616D01*
X113033646Y-132407933D01*
X115778579Y-129663000D01*
X116657081Y-129663000D01*
X116745392Y-129770608D01*
X116958113Y-129945183D01*
X117200805Y-130074904D01*
X117464140Y-130154786D01*
X117669375Y-130175000D01*
X118550625Y-130175000D01*
X118755860Y-130154786D01*
X119019195Y-130074904D01*
X119261887Y-129945183D01*
X119474608Y-129770608D01*
X119649183Y-129557887D01*
X119778904Y-129315195D01*
X119858786Y-129051860D01*
X119885759Y-128778000D01*
X119858786Y-128504140D01*
X119778904Y-128240805D01*
X119649183Y-127998113D01*
X119474608Y-127785392D01*
X119261887Y-127610817D01*
X119067587Y-127506962D01*
X119133942Y-127480059D01*
X119363729Y-127329006D01*
X119559632Y-127136026D01*
X119714122Y-126908535D01*
X119821262Y-126655276D01*
X119836220Y-126581070D01*
X119713720Y-126365000D01*
X118237000Y-126365000D01*
X118237000Y-126385000D01*
X117983000Y-126385000D01*
X117983000Y-126365000D01*
X117963000Y-126365000D01*
X117963000Y-126111000D01*
X117983000Y-126111000D01*
X117983000Y-126091000D01*
X118237000Y-126091000D01*
X118237000Y-126111000D01*
X119713720Y-126111000D01*
X119836220Y-125894930D01*
X119821262Y-125820724D01*
X119714122Y-125567465D01*
X119559632Y-125339974D01*
X119363729Y-125146994D01*
X119133942Y-124995941D01*
X119067587Y-124969038D01*
X119261887Y-124865183D01*
X119474608Y-124690608D01*
X119649183Y-124477887D01*
X119778904Y-124235195D01*
X119858786Y-123971860D01*
X119885759Y-123698000D01*
X119858786Y-123424140D01*
X119778904Y-123160805D01*
X119649183Y-122918113D01*
X119474608Y-122705392D01*
X119261887Y-122530817D01*
X119069529Y-122428000D01*
X119261887Y-122325183D01*
X119474608Y-122150608D01*
X119649183Y-121937887D01*
X119778904Y-121695195D01*
X119858786Y-121431860D01*
X119885759Y-121158000D01*
X119858786Y-120884140D01*
X119778904Y-120620805D01*
X119649183Y-120378113D01*
X119474608Y-120165392D01*
X119261887Y-119990817D01*
X119019195Y-119861096D01*
X118755860Y-119781214D01*
X118550625Y-119761000D01*
X117669375Y-119761000D01*
X117464140Y-119781214D01*
X117200805Y-119861096D01*
X116958113Y-119990817D01*
X116745392Y-120165392D01*
X116570817Y-120378113D01*
X116441096Y-120620805D01*
X116361214Y-120884140D01*
X116334241Y-121158000D01*
X116361214Y-121431860D01*
X116441096Y-121695195D01*
X116570817Y-121937887D01*
X116745392Y-122150608D01*
X116958113Y-122325183D01*
X117150471Y-122428000D01*
X116958113Y-122530817D01*
X116745392Y-122705392D01*
X116570817Y-122918113D01*
X116441096Y-123160805D01*
X116361214Y-123424140D01*
X116334241Y-123698000D01*
X116361214Y-123971860D01*
X116441096Y-124235195D01*
X116570817Y-124477887D01*
X116745392Y-124690608D01*
X116958113Y-124865183D01*
X117152413Y-124969038D01*
X117086058Y-124995941D01*
X116856271Y-125146994D01*
X116660368Y-125339974D01*
X116505878Y-125567465D01*
X116400392Y-125816813D01*
X103598999Y-113015421D01*
X103598999Y-105492000D01*
X106889928Y-105492000D01*
X106902188Y-105616482D01*
X106938498Y-105736180D01*
X106997463Y-105846494D01*
X107076815Y-105943185D01*
X107173506Y-106022537D01*
X107283820Y-106081502D01*
X107403518Y-106117812D01*
X107528000Y-106130072D01*
X107942250Y-106127000D01*
X108101000Y-105968250D01*
X108101000Y-104819000D01*
X108355000Y-104819000D01*
X108355000Y-105968250D01*
X108513750Y-106127000D01*
X108928000Y-106130072D01*
X109052482Y-106117812D01*
X109172180Y-106081502D01*
X109282494Y-106022537D01*
X109379185Y-105943185D01*
X109458537Y-105846494D01*
X109517502Y-105736180D01*
X109553812Y-105616482D01*
X109566072Y-105492000D01*
X109563000Y-104977750D01*
X109404250Y-104819000D01*
X108355000Y-104819000D01*
X108101000Y-104819000D01*
X107051750Y-104819000D01*
X106893000Y-104977750D01*
X106889928Y-105492000D01*
X103598999Y-105492000D01*
X103598999Y-103892000D01*
X106889928Y-103892000D01*
X106893000Y-104406250D01*
X107051750Y-104565000D01*
X108101000Y-104565000D01*
X108101000Y-103415750D01*
X108355000Y-103415750D01*
X108355000Y-104565000D01*
X109404250Y-104565000D01*
X109563000Y-104406250D01*
X109566072Y-103892000D01*
X109553812Y-103767518D01*
X109517502Y-103647820D01*
X109458537Y-103537506D01*
X109379185Y-103440815D01*
X109282494Y-103361463D01*
X109172180Y-103302498D01*
X109052482Y-103266188D01*
X108928000Y-103253928D01*
X108513750Y-103257000D01*
X108355000Y-103415750D01*
X108101000Y-103415750D01*
X107942250Y-103257000D01*
X107528000Y-103253928D01*
X107403518Y-103266188D01*
X107283820Y-103302498D01*
X107173506Y-103361463D01*
X107076815Y-103440815D01*
X106997463Y-103537506D01*
X106938498Y-103647820D01*
X106902188Y-103767518D01*
X106889928Y-103892000D01*
X103598999Y-103892000D01*
X103598999Y-98292000D01*
X106889928Y-98292000D01*
X106902188Y-98416482D01*
X106938498Y-98536180D01*
X106997463Y-98646494D01*
X107076815Y-98743185D01*
X107173506Y-98822537D01*
X107283820Y-98881502D01*
X107403518Y-98917812D01*
X107528000Y-98930072D01*
X107942250Y-98927000D01*
X108101000Y-98768250D01*
X108101000Y-97619000D01*
X108355000Y-97619000D01*
X108355000Y-98768250D01*
X108513750Y-98927000D01*
X108928000Y-98930072D01*
X109052482Y-98917812D01*
X109172180Y-98881502D01*
X109282494Y-98822537D01*
X109379185Y-98743185D01*
X109458537Y-98646494D01*
X109517502Y-98536180D01*
X109553812Y-98416482D01*
X109566072Y-98292000D01*
X109563000Y-97777750D01*
X109404250Y-97619000D01*
X108355000Y-97619000D01*
X108101000Y-97619000D01*
X107051750Y-97619000D01*
X106893000Y-97777750D01*
X106889928Y-98292000D01*
X103598999Y-98292000D01*
X103598999Y-96692000D01*
X106889928Y-96692000D01*
X106893000Y-97206250D01*
X107051750Y-97365000D01*
X108101000Y-97365000D01*
X108101000Y-96215750D01*
X108355000Y-96215750D01*
X108355000Y-97365000D01*
X109404250Y-97365000D01*
X109563000Y-97206250D01*
X109566072Y-96692000D01*
X109553812Y-96567518D01*
X109517502Y-96447820D01*
X109458537Y-96337506D01*
X109379185Y-96240815D01*
X109282494Y-96161463D01*
X109172180Y-96102498D01*
X109052482Y-96066188D01*
X108928000Y-96053928D01*
X108513750Y-96057000D01*
X108355000Y-96215750D01*
X108101000Y-96215750D01*
X107942250Y-96057000D01*
X107528000Y-96053928D01*
X107403518Y-96066188D01*
X107283820Y-96102498D01*
X107173506Y-96161463D01*
X107076815Y-96240815D01*
X106997463Y-96337506D01*
X106938498Y-96447820D01*
X106902188Y-96567518D01*
X106889928Y-96692000D01*
X103598999Y-96692000D01*
X103598999Y-95115413D01*
X107550192Y-95115413D01*
X107645956Y-95379814D01*
X107935571Y-95520704D01*
X108247108Y-95602384D01*
X108568595Y-95621718D01*
X108887675Y-95577961D01*
X109192088Y-95472795D01*
X109366044Y-95379814D01*
X109461808Y-95115413D01*
X108506000Y-94159605D01*
X107550192Y-95115413D01*
X103598999Y-95115413D01*
X103598999Y-94042595D01*
X106864282Y-94042595D01*
X106908039Y-94361675D01*
X107013205Y-94666088D01*
X107106186Y-94840044D01*
X107370587Y-94935808D01*
X108326395Y-93980000D01*
X108685605Y-93980000D01*
X109641413Y-94935808D01*
X109905814Y-94840044D01*
X110006662Y-94632739D01*
X110057082Y-94754463D01*
X110236013Y-95022252D01*
X110463748Y-95249987D01*
X110731537Y-95428918D01*
X111029088Y-95552168D01*
X111344967Y-95615000D01*
X111667033Y-95615000D01*
X111982912Y-95552168D01*
X112280463Y-95428918D01*
X112548252Y-95249987D01*
X112775987Y-95022252D01*
X112954918Y-94754463D01*
X113006000Y-94631140D01*
X113057082Y-94754463D01*
X113236013Y-95022252D01*
X113463748Y-95249987D01*
X113731537Y-95428918D01*
X114029088Y-95552168D01*
X114344967Y-95615000D01*
X114667033Y-95615000D01*
X114982912Y-95552168D01*
X115280463Y-95428918D01*
X115548252Y-95249987D01*
X115775987Y-95022252D01*
X115954918Y-94754463D01*
X116078168Y-94456912D01*
X116141000Y-94141033D01*
X116141000Y-93818967D01*
X116078168Y-93503088D01*
X115954918Y-93205537D01*
X115775987Y-92937748D01*
X115548252Y-92710013D01*
X115280463Y-92531082D01*
X114982912Y-92407832D01*
X114667033Y-92345000D01*
X114344967Y-92345000D01*
X114029088Y-92407832D01*
X113731537Y-92531082D01*
X113463748Y-92710013D01*
X113236013Y-92937748D01*
X113057082Y-93205537D01*
X113006000Y-93328860D01*
X112954918Y-93205537D01*
X112775987Y-92937748D01*
X112548252Y-92710013D01*
X112280463Y-92531082D01*
X111982912Y-92407832D01*
X111667033Y-92345000D01*
X111344967Y-92345000D01*
X111029088Y-92407832D01*
X110731537Y-92531082D01*
X110463748Y-92710013D01*
X110236013Y-92937748D01*
X110057082Y-93205537D01*
X110008654Y-93322451D01*
X109998795Y-93293912D01*
X109905814Y-93119956D01*
X109641413Y-93024192D01*
X108685605Y-93980000D01*
X108326395Y-93980000D01*
X107370587Y-93024192D01*
X107106186Y-93119956D01*
X106965296Y-93409571D01*
X106883616Y-93721108D01*
X106864282Y-94042595D01*
X103598999Y-94042595D01*
X103598999Y-92844587D01*
X107550192Y-92844587D01*
X108506000Y-93800395D01*
X109461808Y-92844587D01*
X109366044Y-92580186D01*
X109076429Y-92439296D01*
X108764892Y-92357616D01*
X108443405Y-92338282D01*
X108124325Y-92382039D01*
X107819912Y-92487205D01*
X107645956Y-92580186D01*
X107550192Y-92844587D01*
X103598999Y-92844587D01*
X103598999Y-62752579D01*
X105009050Y-61342529D01*
X105042817Y-61314817D01*
X105153411Y-61180059D01*
X105235589Y-61026313D01*
X105286195Y-60859490D01*
X105299000Y-60729477D01*
X105299000Y-60729467D01*
X105303281Y-60686001D01*
X105299000Y-60642535D01*
X105299000Y-59898072D01*
X105664000Y-59898072D01*
X105788482Y-59885812D01*
X105875928Y-59859286D01*
X105875928Y-61160000D01*
X105888188Y-61284482D01*
X105924498Y-61404180D01*
X105983463Y-61514494D01*
X106062815Y-61611185D01*
X106159506Y-61690537D01*
X106269820Y-61749502D01*
X106389518Y-61785812D01*
X106514000Y-61798072D01*
X107514000Y-61798072D01*
X107638482Y-61785812D01*
X107758180Y-61749502D01*
X107868494Y-61690537D01*
X107965185Y-61611185D01*
X108014000Y-61551704D01*
X108062815Y-61611185D01*
X108159506Y-61690537D01*
X108269820Y-61749502D01*
X108389518Y-61785812D01*
X108514000Y-61798072D01*
X109514000Y-61798072D01*
X109638482Y-61785812D01*
X109758180Y-61749502D01*
X109868494Y-61690537D01*
X109965185Y-61611185D01*
X110014000Y-61551704D01*
X110062815Y-61611185D01*
X110159506Y-61690537D01*
X110269820Y-61749502D01*
X110389518Y-61785812D01*
X110514000Y-61798072D01*
X111514000Y-61798072D01*
X111638482Y-61785812D01*
X111758180Y-61749502D01*
X111868494Y-61690537D01*
X111965185Y-61611185D01*
X112014000Y-61551704D01*
X112062815Y-61611185D01*
X112159506Y-61690537D01*
X112269820Y-61749502D01*
X112389518Y-61785812D01*
X112514000Y-61798072D01*
X113514000Y-61798072D01*
X113638482Y-61785812D01*
X113758180Y-61749502D01*
X113868494Y-61690537D01*
X113965185Y-61611185D01*
X114014000Y-61551704D01*
X114062815Y-61611185D01*
X114159506Y-61690537D01*
X114269820Y-61749502D01*
X114389518Y-61785812D01*
X114514000Y-61798072D01*
X115514000Y-61798072D01*
X115638482Y-61785812D01*
X115758180Y-61749502D01*
X115868494Y-61690537D01*
X115965185Y-61611185D01*
X116014000Y-61551704D01*
X116062815Y-61611185D01*
X116159506Y-61690537D01*
X116269820Y-61749502D01*
X116389518Y-61785812D01*
X116514000Y-61798072D01*
X117514000Y-61798072D01*
X117638482Y-61785812D01*
X117758180Y-61749502D01*
X117868494Y-61690537D01*
X117965185Y-61611185D01*
X118044537Y-61514494D01*
X118103502Y-61404180D01*
X118139812Y-61284482D01*
X118152072Y-61160000D01*
X118152072Y-59859286D01*
X118239518Y-59885812D01*
X118364000Y-59898072D01*
X119328250Y-59895000D01*
X119487000Y-59736250D01*
X119487000Y-58887000D01*
X117938603Y-58887000D01*
X117868494Y-58829463D01*
X117758180Y-58770498D01*
X117638482Y-58734188D01*
X117514000Y-58721928D01*
X116514000Y-58721928D01*
X116389518Y-58734188D01*
X116269820Y-58770498D01*
X116159506Y-58829463D01*
X116062815Y-58908815D01*
X116014000Y-58968296D01*
X115965185Y-58908815D01*
X115868494Y-58829463D01*
X115758180Y-58770498D01*
X115638482Y-58734188D01*
X115514000Y-58721928D01*
X114514000Y-58721928D01*
X114389518Y-58734188D01*
X114269820Y-58770498D01*
X114159506Y-58829463D01*
X114062815Y-58908815D01*
X114014000Y-58968296D01*
X113965185Y-58908815D01*
X113868494Y-58829463D01*
X113758180Y-58770498D01*
X113638482Y-58734188D01*
X113536000Y-58724095D01*
X113536000Y-30383046D01*
X113630494Y-30332537D01*
X113727185Y-30253185D01*
X113806537Y-30156494D01*
X113865502Y-30046180D01*
X113901812Y-29926482D01*
X113914072Y-29802000D01*
X114137928Y-29802000D01*
X114150188Y-29926482D01*
X114186498Y-30046180D01*
X114245463Y-30156494D01*
X114324815Y-30253185D01*
X114421506Y-30332537D01*
X114531820Y-30391502D01*
X114651518Y-30427812D01*
X114776000Y-30440072D01*
X114990250Y-30437000D01*
X115149000Y-30278250D01*
X115149000Y-28829000D01*
X115403000Y-28829000D01*
X115403000Y-30278250D01*
X115561750Y-30437000D01*
X115776000Y-30440072D01*
X115900482Y-30427812D01*
X116020180Y-30391502D01*
X116130494Y-30332537D01*
X116227185Y-30253185D01*
X116306537Y-30156494D01*
X116365502Y-30046180D01*
X116401812Y-29926482D01*
X116414072Y-29802000D01*
X116411000Y-28987750D01*
X116252250Y-28829000D01*
X115403000Y-28829000D01*
X115149000Y-28829000D01*
X114299750Y-28829000D01*
X114141000Y-28987750D01*
X114137928Y-29802000D01*
X113914072Y-29802000D01*
X113914072Y-27602000D01*
X114137928Y-27602000D01*
X114141000Y-28416250D01*
X114299750Y-28575000D01*
X115149000Y-28575000D01*
X115149000Y-27125750D01*
X115403000Y-27125750D01*
X115403000Y-28575000D01*
X116252250Y-28575000D01*
X116411000Y-28416250D01*
X116411097Y-28390305D01*
X116937313Y-28390305D01*
X116937313Y-29013695D01*
X117058930Y-29625105D01*
X117297490Y-30201042D01*
X117643827Y-30719371D01*
X118084629Y-31160173D01*
X118602958Y-31506510D01*
X119178895Y-31745070D01*
X119790305Y-31866687D01*
X120413695Y-31866687D01*
X121025105Y-31745070D01*
X121601042Y-31506510D01*
X122119371Y-31160173D01*
X122560173Y-30719371D01*
X122906510Y-30201042D01*
X123145070Y-29625105D01*
X123266687Y-29013695D01*
X123266687Y-28390305D01*
X123145070Y-27778895D01*
X122906510Y-27202958D01*
X122560173Y-26684629D01*
X122119371Y-26243827D01*
X121601042Y-25897490D01*
X121025105Y-25658930D01*
X120413695Y-25537313D01*
X119790305Y-25537313D01*
X119178895Y-25658930D01*
X118602958Y-25897490D01*
X118084629Y-26243827D01*
X117643827Y-26684629D01*
X117297490Y-27202958D01*
X117058930Y-27778895D01*
X116937313Y-28390305D01*
X116411097Y-28390305D01*
X116414072Y-27602000D01*
X116401812Y-27477518D01*
X116365502Y-27357820D01*
X116306537Y-27247506D01*
X116227185Y-27150815D01*
X116130494Y-27071463D01*
X116020180Y-27012498D01*
X115900482Y-26976188D01*
X115776000Y-26963928D01*
X115561750Y-26967000D01*
X115403000Y-27125750D01*
X115149000Y-27125750D01*
X114990250Y-26967000D01*
X114776000Y-26963928D01*
X114651518Y-26976188D01*
X114531820Y-27012498D01*
X114421506Y-27071463D01*
X114324815Y-27150815D01*
X114245463Y-27247506D01*
X114186498Y-27357820D01*
X114150188Y-27477518D01*
X114137928Y-27602000D01*
X113914072Y-27602000D01*
X113901812Y-27477518D01*
X113865502Y-27357820D01*
X113806537Y-27247506D01*
X113727185Y-27150815D01*
X113630494Y-27071463D01*
X113520180Y-27012498D01*
X113400482Y-26976188D01*
X113276000Y-26963928D01*
X112276000Y-26963928D01*
X112151518Y-26976188D01*
X112031820Y-27012498D01*
X111921506Y-27071463D01*
X111824815Y-27150815D01*
X111745463Y-27247506D01*
X111686498Y-27357820D01*
X111650188Y-27477518D01*
X111637928Y-27602000D01*
X111637928Y-29802000D01*
X111650188Y-29926482D01*
X111686498Y-30046180D01*
X111745463Y-30156494D01*
X111824815Y-30253185D01*
X111921506Y-30332537D01*
X112016000Y-30383046D01*
X112016001Y-58965858D01*
X112014000Y-58968296D01*
X111965185Y-58908815D01*
X111868494Y-58829463D01*
X111758180Y-58770498D01*
X111638482Y-58734188D01*
X111514000Y-58721928D01*
X110514000Y-58721928D01*
X110389518Y-58734188D01*
X110269820Y-58770498D01*
X110159506Y-58829463D01*
X110062815Y-58908815D01*
X110014000Y-58968296D01*
X109965185Y-58908815D01*
X109868494Y-58829463D01*
X109758180Y-58770498D01*
X109638482Y-58734188D01*
X109514000Y-58721928D01*
X108514000Y-58721928D01*
X108389518Y-58734188D01*
X108269820Y-58770498D01*
X108159506Y-58829463D01*
X108062815Y-58908815D01*
X108014000Y-58968296D01*
X107965185Y-58908815D01*
X107868494Y-58829463D01*
X107758180Y-58770498D01*
X107638482Y-58734188D01*
X107514000Y-58721928D01*
X106514000Y-58721928D01*
X106389518Y-58734188D01*
X106302072Y-58760714D01*
X106302072Y-58260000D01*
X106289812Y-58135518D01*
X106253502Y-58015820D01*
X106194537Y-57905506D01*
X106115185Y-57808815D01*
X106055704Y-57760000D01*
X106115185Y-57711185D01*
X106194537Y-57614494D01*
X106253502Y-57504180D01*
X106289812Y-57384482D01*
X106302072Y-57260000D01*
X106302072Y-56260000D01*
X106289812Y-56135518D01*
X106253502Y-56015820D01*
X106194537Y-55905506D01*
X106115185Y-55808815D01*
X106055704Y-55760000D01*
X106115185Y-55711185D01*
X106194537Y-55614494D01*
X106253502Y-55504180D01*
X106289812Y-55384482D01*
X106302072Y-55260000D01*
X106302072Y-54260000D01*
X106289812Y-54135518D01*
X106253502Y-54015820D01*
X106194537Y-53905506D01*
X106115185Y-53808815D01*
X106055704Y-53760000D01*
X106115185Y-53711185D01*
X106194537Y-53614494D01*
X106253502Y-53504180D01*
X106289812Y-53384482D01*
X106302072Y-53260000D01*
X106302072Y-52260000D01*
X106289812Y-52135518D01*
X106253502Y-52015820D01*
X106194537Y-51905506D01*
X106115185Y-51808815D01*
X106055704Y-51760000D01*
X106115185Y-51711185D01*
X106194537Y-51614494D01*
X106253502Y-51504180D01*
X106289812Y-51384482D01*
X106302072Y-51260000D01*
X106302072Y-50260000D01*
X106289812Y-50135518D01*
X106253502Y-50015820D01*
X106194537Y-49905506D01*
X106115185Y-49808815D01*
X106055704Y-49760000D01*
X106115185Y-49711185D01*
X106194537Y-49614494D01*
X106253502Y-49504180D01*
X106289812Y-49384482D01*
X106302072Y-49260000D01*
X106302072Y-48260000D01*
X106289812Y-48135518D01*
X106253502Y-48015820D01*
X106194537Y-47905506D01*
X106115185Y-47808815D01*
X106055704Y-47760000D01*
X106115185Y-47711185D01*
X106194537Y-47614494D01*
X106253502Y-47504180D01*
X106289812Y-47384482D01*
X106302072Y-47260000D01*
X106302072Y-46260000D01*
X106289812Y-46135518D01*
X106253502Y-46015820D01*
X106194537Y-45905506D01*
X106115185Y-45808815D01*
X106055704Y-45760000D01*
X106115185Y-45711185D01*
X106194537Y-45614494D01*
X106253502Y-45504180D01*
X106289812Y-45384482D01*
X106302072Y-45260000D01*
X106302072Y-44260000D01*
X106289812Y-44135518D01*
X106253502Y-44015820D01*
X106194537Y-43905506D01*
X106115185Y-43808815D01*
X106018494Y-43729463D01*
X105908180Y-43670498D01*
X105788482Y-43634188D01*
X105664000Y-43621928D01*
X103164000Y-43621928D01*
X103039518Y-43634188D01*
X102919820Y-43670498D01*
X102809506Y-43729463D01*
X102712815Y-43808815D01*
X102633463Y-43905506D01*
X102574498Y-44015820D01*
X102538188Y-44135518D01*
X102525928Y-44260000D01*
X102525928Y-45260000D01*
X102538188Y-45384482D01*
X102574498Y-45504180D01*
X102633463Y-45614494D01*
X102712815Y-45711185D01*
X102772296Y-45760000D01*
X102712815Y-45808815D01*
X102633463Y-45905506D01*
X102574498Y-46015820D01*
X102538188Y-46135518D01*
X102525928Y-46260000D01*
X102525928Y-47260000D01*
X102538188Y-47384482D01*
X102574498Y-47504180D01*
X102633463Y-47614494D01*
X102712815Y-47711185D01*
X102772296Y-47760000D01*
X102712815Y-47808815D01*
X102633463Y-47905506D01*
X102574498Y-48015820D01*
X102538188Y-48135518D01*
X102525928Y-48260000D01*
X102525928Y-49260000D01*
X102538188Y-49384482D01*
X102574498Y-49504180D01*
X102633463Y-49614494D01*
X102712815Y-49711185D01*
X102772296Y-49760000D01*
X102712815Y-49808815D01*
X102633463Y-49905506D01*
X102574498Y-50015820D01*
X102538188Y-50135518D01*
X102525928Y-50260000D01*
X102525928Y-51260000D01*
X102538188Y-51384482D01*
X102574498Y-51504180D01*
X102633463Y-51614494D01*
X102712815Y-51711185D01*
X102772296Y-51760000D01*
X102712815Y-51808815D01*
X102633463Y-51905506D01*
X102574498Y-52015820D01*
X102538188Y-52135518D01*
X102525928Y-52260000D01*
X102525928Y-53260000D01*
X102538188Y-53384482D01*
X102574498Y-53504180D01*
X102633463Y-53614494D01*
X102712815Y-53711185D01*
X102772296Y-53760000D01*
X102712815Y-53808815D01*
X102633463Y-53905506D01*
X102574498Y-54015820D01*
X102538188Y-54135518D01*
X102525928Y-54260000D01*
X102525928Y-55260000D01*
X102538188Y-55384482D01*
X102574498Y-55504180D01*
X102633463Y-55614494D01*
X102712815Y-55711185D01*
X102772296Y-55760000D01*
X102712815Y-55808815D01*
X102633463Y-55905506D01*
X102574498Y-56015820D01*
X102538188Y-56135518D01*
X102525928Y-56260000D01*
X102525928Y-57260000D01*
X102538188Y-57384482D01*
X102574498Y-57504180D01*
X102633463Y-57614494D01*
X102712815Y-57711185D01*
X102772296Y-57760000D01*
X102712815Y-57808815D01*
X102633463Y-57905506D01*
X102574498Y-58015820D01*
X102538188Y-58135518D01*
X102525928Y-58260000D01*
X102525928Y-59260000D01*
X102538188Y-59384482D01*
X102574498Y-59504180D01*
X102633463Y-59614494D01*
X102712815Y-59711185D01*
X102809506Y-59790537D01*
X102919820Y-59849502D01*
X103039518Y-59885812D01*
X103164000Y-59898072D01*
X103529000Y-59898072D01*
X103529000Y-60319421D01*
X102118950Y-61729472D01*
X102085183Y-61757184D01*
X102057470Y-61790952D01*
X102057467Y-61790955D01*
X101974589Y-61891942D01*
X101892411Y-62045688D01*
X101841804Y-62212511D01*
X101824718Y-62386001D01*
X99660000Y-62386001D01*
X99660000Y-28644305D01*
X99665313Y-28644305D01*
X99665313Y-29267695D01*
X99786930Y-29879105D01*
X100025490Y-30455042D01*
X100371827Y-30973371D01*
X100812629Y-31414173D01*
X101330958Y-31760510D01*
X101906895Y-31999070D01*
X102518305Y-32120687D01*
X103141695Y-32120687D01*
X103753105Y-31999070D01*
X104329042Y-31760510D01*
X104847371Y-31414173D01*
X105288173Y-30973371D01*
X105634510Y-30455042D01*
X105873070Y-29879105D01*
X105994687Y-29267695D01*
X105994687Y-28644305D01*
X105873070Y-28032895D01*
X105694589Y-27602000D01*
X109107928Y-27602000D01*
X109107928Y-29802000D01*
X109120188Y-29926482D01*
X109156498Y-30046180D01*
X109215463Y-30156494D01*
X109294815Y-30253185D01*
X109391506Y-30332537D01*
X109501820Y-30391502D01*
X109621518Y-30427812D01*
X109746000Y-30440072D01*
X110746000Y-30440072D01*
X110870482Y-30427812D01*
X110990180Y-30391502D01*
X111100494Y-30332537D01*
X111197185Y-30253185D01*
X111276537Y-30156494D01*
X111335502Y-30046180D01*
X111371812Y-29926482D01*
X111384072Y-29802000D01*
X111384072Y-27602000D01*
X111371812Y-27477518D01*
X111335502Y-27357820D01*
X111276537Y-27247506D01*
X111197185Y-27150815D01*
X111100494Y-27071463D01*
X110990180Y-27012498D01*
X110870482Y-26976188D01*
X110746000Y-26963928D01*
X109746000Y-26963928D01*
X109621518Y-26976188D01*
X109501820Y-27012498D01*
X109391506Y-27071463D01*
X109294815Y-27150815D01*
X109215463Y-27247506D01*
X109156498Y-27357820D01*
X109120188Y-27477518D01*
X109107928Y-27602000D01*
X105694589Y-27602000D01*
X105634510Y-27456958D01*
X105288173Y-26938629D01*
X104847371Y-26497827D01*
X104329042Y-26151490D01*
X103753105Y-25912930D01*
X103141695Y-25791313D01*
X102518305Y-25791313D01*
X101906895Y-25912930D01*
X101330958Y-26151490D01*
X100812629Y-26497827D01*
X100371827Y-26938629D01*
X100025490Y-27456958D01*
X99786930Y-28032895D01*
X99665313Y-28644305D01*
X99660000Y-28644305D01*
X99660000Y-22660000D01*
X123340001Y-22660000D01*
X123340001Y-45911199D01*
%TD*%
M02*
